<?xml version="1.0" encoding="utf-8"?>
<!-- Generator: Adobe Illustrator 19.2.1, SVG Export Plug-In . SVG Version: 6.00 Build 0)  -->
<svg version="1.1" id="Слой_1" xmlns="http://www.w3.org/2000/svg" xmlns:xlink="http://www.w3.org/1999/xlink" x="0px" y="0px"
	 viewBox="0 0 9.4137096 20" style="enable-background:new 0 0 9.4137096 20;" xml:space="preserve">
<style type="text/css">
	.st0{fill:#010101;}
</style>
<path class="st0" d="M9.4122438,5.4275365L9.4098406,8.1330423h-2.835784v11.8669424H2.3786657L2.3785653,8.1374979
	C1.5874236,8.1373758,0.7962818,8.1371927,0.0051399,8.1370096L0.0050277,5.4279637
	c0.7698928,0.000061,1.5397854,0.0001831,2.3096781,0.0002441c0.0049019-0.4970703,0.009804-0.9940796,0.0147059-1.4911497
	C2.334543,3.4167335,2.3842809,3.0059669,2.5007634,2.6187599c0.09216-0.3063354,0.2050049-0.5337524,0.2639425-0.6464235
	C2.9148011,1.6853491,3.2904203,0.988999,4.0784316,0.5488135c0.4346724-0.2427979,0.818038-0.30896,1.2549019-0.3842773
	c0.5763998-0.0994263,1.0175481-0.0783081,1.317647-0.0706177C7.5712419,0.117478,8.4915037,0.1409766,9.4117651,0.1645361
	c0.002614,0.9672852,0.005229,1.9346315,0.007843,2.9019165c-0.7691393,0.003418-1.3251829-0.0014648-1.7333336-0.0078125
	c-0.2770166-0.0043335-0.543179-0.0081177-0.7607841,0.1725464C6.6587501,3.4526222,6.6343789,3.8271339,6.6334591,3.9839332
	L6.635294,5.4277196L9.4122438,5.4275365z"/>
</svg>
