<?xml version="1.0" encoding="utf-8"?>
<!-- Generator: Adobe Illustrator 19.2.1, SVG Export Plug-In . SVG Version: 6.00 Build 0)  -->
<svg version="1.1" id="Слой_1" xmlns="http://www.w3.org/2000/svg" xmlns:xlink="http://www.w3.org/1999/xlink" x="0px" y="0px"
	 viewBox="0 0 246.315918 50.0024719" style="enable-background:new 0 0 246.315918 50.0024719;" xml:space="preserve">
<style type="text/css">
	.st0{fill:#FF0066;}
	.st1{enable-background:new    ;}
	.st2{fill:#0070C0;}
	.st3{fill:#0B0B0B;}
</style>
<g id="Фон_xA0_Изображение_1_">
	<path class="st0" d="M20.8446903,38.249176l-0.0001431,0.5639381c-0.0003757,1.491127-1.2092781,2.6997261-2.700407,2.6997261
		H2.6918659C1.2051895,41.5128403,0,40.3076477,0,38.8209724v-15.432127c0-1.4915466,1.2092532-2.7006226,2.7007997-2.700407
		l0.5639327,0.0000839c1.4878149,0.0002155,2.6938119,1.2063866,2.6938119,2.6942005v12.1715755H18.150486
		C19.6387196,35.5542984,20.8450623,36.7609444,20.8446903,38.249176z M13.2022552,16.1402454h12.1703396v12.1902618
		c0,1.4876919,1.2058067,2.6938171,2.6934986,2.6942081l0.5639286,0.0001431
		c1.4916725,0.0003948,2.7011185-1.2087345,2.7011185-2.7004051V12.8735647c0-1.4866743-1.2051907-2.6918659-2.6918659-2.6918659
		H13.2086372c-1.491065,0-2.6999426,1.2084999-2.700407,2.6995649l-0.0001774,0.5639372
		C10.5075884,14.9334955,11.7139606,16.1402454,13.2022552,16.1402454z"/>
</g>
<g id="Эллипс_1_1_" class="st1">
	<path class="st2" d="M42.0521889,18.6464386h0.630909V15.197485c0-0.9253292,0.0236588-1.6508713,0.0736046-2.1766262
		c0.0486336-0.5257549,0.1853294-0.9779043,0.4100876-1.3564482c0.2234459-0.3916874,0.5467873-0.7110834,0.967392-0.9568739
		c0.4206009-0.2444763,0.8898392-0.3680286,1.4090233-0.3680286c0.7281685,0,1.3879929,0.2733927,1.9768372,0.820178
		c0.3916893,0.3653994,0.6414223,0.8096628,0.7465744,1.3354177c0.1051483,0.5257549,0.1577263,1.2723274,0.1577263,2.2397165
		v3.9116182h2.1030197c0.8122902,0,1.432682,0.1932144,1.8611717,0.5783291
		c0.4271774,0.3864307,0.6414223,0.88064,0.6414223,1.4826298c0,0.7715454-0.3049393,1.3117599-0.914814,1.6193256
		c-0.6098747,0.3088818-1.4826317,0.4626656-2.6182594,0.4626656h-1.0725403V33.34655
		c0,0.897728,0.0315437,1.58778,0.094635,2.071476c0.0630913,0.4836922,0.2313309,0.8766937,0.5047226,1.1776886
		c0.2733955,0.3023109,0.717659,0.4521523,1.3354187,0.4521523c0.336483,0,0.7912636-0.0591507,1.3669624-0.1787567
		c0.5743904-0.1182976,1.0225945-0.1787567,1.3459358-0.1787567c0.4626617,0,0.8793259,0.1866417,1.251297,0.5573006
		c0.3706551,0.3719711,0.5573006,0.8306923,0.5573006,1.3774757c0,0.9253311-0.5047264,1.6337852-1.5141754,2.1240501
		c-1.009449,0.4902687-2.4605331,0.7360573-4.3532524,0.7360573c-1.7954521,0-3.1545296-0.3023071-4.0798607-0.9042969
		c-0.9253273-0.6019897-1.5325737-1.4366264-1.8191109-2.502594c-0.2878494-1.0646553-0.431118-2.4881363-0.431118-4.2691307
		V22.7893887h-0.7570877c-0.828064,0-1.4589729-0.1958447-1.8927193-0.5888462
		c-0.4350624-0.3916874-0.6519356-0.8898411-0.6519356-1.493145c0-0.6019897,0.2273865-1.096199,0.6834793-1.4826298
		C40.5196152,18.839653,41.1820641,18.6464386,42.0521889,18.6464386z M62.6828194,33.199337v4.7948875
		c0,1.164547-0.2733917,2.0373001-0.820179,2.6182594c-0.5467834,0.5809593-1.2407799,0.8727531-2.0819893,0.8727531
		c-0.828064,0-1.5076027-0.2944221-2.0399284-0.8832664c-0.5336418-0.5888481-0.7991486-1.4576569-0.7991486-2.6077461v-15.982954
		c0-2.5788288,0.9319-3.8695583,2.7970161-3.8695583c0.9529305,0,1.640358,0.3023109,2.0609589,0.9042988
		c0.4206047,0.6033039,0.6519394,1.493145,0.6939964,2.6708374c0.6861115-1.1776924,1.390625-2.0675335,2.1135406-2.6708374
		c0.7215958-0.6019878,1.6850433-0.9042988,2.8916473-0.9042988c1.2052917,0,2.3764114,0.3023109,3.5120468,0.9042988
		c1.1356277,0.6033039,1.7034454,1.4024525,1.7034454,2.3974438c0,0.7018833-0.2418442,1.2802143-0.7255402,1.7349911
		c-0.483696,0.4560928-1.0068207,0.6834831-1.5667496,0.6834831c-0.2103043,0-0.7189713-0.1288109-1.5246887-0.3890591
		c-0.8070374-0.258934-1.5181198-0.3890591-2.1345673-0.3890591c-0.8412094,0-1.5286331,0.2208176-2.0609589,0.6624508
		c-0.5336456,0.4416351-0.9463615,1.0975132-1.2407837,1.9663239c-0.2944221,0.8701248-0.4981537,1.9032345-0.6098785,3.1019554
		C62.7380219,30.0132618,62.6828194,31.4748611,62.6828194,33.199337z M80.5795212,21.3593349v0.6939964
		c1.0791092-1.3314762,2.2002869-2.3093796,3.36483-2.9337139c1.1632385-0.6230202,2.4815674-0.9358444,3.9536819-0.9358444
		c1.7665329,0,3.3924332,0.4560928,4.8790054,1.3669643c1.48526,0.9121838,2.6603241,2.2436581,3.5225601,3.9957371
		c0.862236,1.7533932,1.2933578,3.8274975,1.2933578,6.2249413c0,1.7665367-0.249733,3.3898048-0.7465744,4.8684921
		c-0.4981537,1.4799995-1.181633,2.7207832-2.0504456,3.7223434c-0.8701248,1.0028801-1.8966599,1.7744255-3.080925,2.313324
		c-1.1855774,0.5388985-2.457901,0.8096619-3.8169785,0.8096619c-1.640358,0-3.0178375-0.3299103-4.1324387-0.9884186
		s-2.1766205-1.6258965-3.1860733-2.9021683v8.6223869c0,2.5236244-0.9187546,3.7854347-2.7549591,3.7854347
		c-1.0804214,0-1.7954483-0.3259659-2.1450806-0.9779053c-0.3509369-0.6519356-0.5257492-1.6022377-0.5257492-2.8495903V21.4013939
		c0-1.0935707,0.2378998-1.9098053,0.7150269-2.4500179c0.4758072-0.5388985,1.127739-0.8096638,1.9558029-0.8096638
		c0.812294,0,1.4747467,0.2773361,1.9873581,0.8306942C80.3232193,19.5270767,80.5795212,20.3222828,80.5795212,21.3593349z
		 M91.8306808,29.7083244c0-1.5141754-0.2313309-2.8141041-0.6940002-3.9011021
		c-0.4626617-1.0856838-1.1040802-1.9203205-1.924263-2.502594c-0.8201752-0.5809593-1.7284164-0.8727531-2.7234116-0.8727531
		c-1.5851517,0-2.9205704,0.6243324-4.0062485,1.8716869c-1.086998,1.2486687-1.6298447,3.0848675-1.6298447,5.5099125
		c0,2.2857227,0.5389023,4.0627728,1.6193237,5.3311558c1.0791168,1.2696991,2.4184799,1.9032364,4.0167694,1.9032364
		c0.9529343,0,1.8362045-0.2760239,2.6498108-0.8306961c0.8122864-0.5533562,1.4642258-1.3840485,1.9558029-2.4920769
		C91.5848923,32.6183777,91.8306808,31.2790184,91.8306808,29.7083244z M15.6757174,20.635107
		c-2.8543577,0-5.1683369,2.3139782-5.1683369,5.1683369c0,2.8545208,2.3139791,5.1685009,5.1683369,5.1685009
		c2.8545218,0,5.1683359-2.3139801,5.1683359-5.1685009C20.8440533,22.9490852,18.5302391,20.635107,15.6757174,20.635107z"/>
</g>
<g id="tax_research_x26_planning_x0D_">
	<path class="st3" d="M100.1822968,2.8284066h0.1971588V1.7506083c0-0.2891653,0.0078888-0.5152402,0.0223465-0.6795385
		c0.01577-0.1642986,0.0591507-0.3062522,0.1288071-0.4245126c0.069664-0.1222727,0.1708755-0.2221662,0.3023148-0.2984006
		c0.1314392-0.0775489,0.2786484-0.1156662,0.4403152-0.1156662c0.2273941,0,0.4337463,0.0854352,0.6177673,0.2563055
		c0.1222382,0.1143519,0.1997833,0.2536768,0.2326431,0.4179751s0.0499496,0.3969451,0.0499496,0.6992542v1.2223814h0.6571884
		c0.2536774,0,0.4482117,0.0604618,0.5809631,0.1813855c0.1340637,0.1196091,0.2011032,0.2747068,0.2011032,0.4626644
		c0,0.2405329-0.0959549,0.410089-0.2865372,0.5060391c-0.1905899,0.0959506-0.4626694,0.1445827-0.8175507,0.1445827h-0.3351669
		v3.2991128c0,0.2799644,0.009201,0.4968386,0.0289154,0.6479926c0.0197144,0.1511555,0.0722885,0.2733927,0.1577225,0.3680286
		c0.085434,0.0933218,0.224762,0.1406403,0.4179764,0.1406403c0.1051559,0,0.2471085-0.0184021,0.4271774-0.0552044
		c0.180069-0.0381174,0.319397-0.0565186,0.4206009-0.0565186c0.1445847,0,0.2747116,0.0578327,0.3903732,0.1748133
		c0.1169815,0.1156664,0.1748199,0.258934,0.1748199,0.4298048c0,0.2891655-0.1577301,0.5099821-0.4731827,0.6637659
		c-0.3154526,0.1537828-0.7689209,0.2300177-1.3603897,0.2300177c-0.5612488,0-0.9857941-0.094636-1.2749557-0.2825937
		c-0.2891693-0.1879568-0.4784393-0.4495201-0.5691299-0.7820606c-0.0893784-0.3325396-0.1340714-0.7781172-0.1340714-1.3341031
		V4.1230783h-0.2365875c-0.258934,0-0.4560928-0.0617762-0.5914764-0.1840143
		c-0.1353836-0.1222379-0.2037277-0.27865-0.2037277-0.4666076s0.0709763-0.3430552,0.2129288-0.4626644
		C99.7038651,2.8888683,99.9102173,2.8284066,100.1822968,2.8284066z M109.3830109,8.9534531
		c-0.4337463,0.3377972-0.853035,0.5901594-1.2591782,0.759716c-0.4048386,0.1682415-0.8596115,0.2523623-1.3630219,0.2523623
		c-0.4600372,0-0.8648682-0.0906925-1.2131805-0.2720785c-0.3483124-0.1827002-0.6164474-0.4284906-0.8044052-0.7399998
		c-0.1879578-0.3115101-0.2825928-0.6479931-0.2825928-1.0120788c0-0.4902668,0.155098-0.9095564,0.4666061-1.2552404
		s0.7386856-0.5783305,1.2815247-0.6966252c0.114357-0.026288,0.3969498-0.0854354,0.8477859-0.1774426
		s0.837265-0.1761279,1.1592865-0.2523623c0.3220291-0.077549,0.6716537-0.1708703,1.0488815-0.2799644
		c-0.0223465-0.4731793-0.1169815-0.8201776-0.2865372-1.0409951c-0.1682434-0.2221313-0.517868-0.3325398-1.0475693-0.3325398
		c-0.4560852,0-0.7991409,0.0630906-1.0291595,0.1905863c-0.2300186,0.1274953-0.4271774,0.3180819-0.5914764,0.5717583
		c-0.164299,0.2536769-0.2799683,0.4219184-0.3483124,0.5034108c-0.0670319,0.0801773-0.2129288,0.120923-0.4363785,0.120923
		c-0.2011032,0-0.3759155-0.064405-0.5231247-0.1932144c-0.1458969-0.1301246-0.2195053-0.2957373-0.2195053-0.4968386
		c0-0.3154531,0.1117249-0.6217055,0.3351746-0.9200714c0.2234421-0.2983661,0.5717545-0.5428421,1.0449371-0.7360573
		c0.473175-0.1932149,1.0620193-0.2891653,1.7678452-0.2891653c0.7886353,0,1.4090271,0.0933216,1.8598633,0.2799647
		c0.4508362,0.1853287,0.7702332,0.4797516,0.9555588,0.8832686c0.1866455,0.4035168,0.2799683,0.9371581,0.2799683,1.6035523
		c0,0.4206042-0.0013199,0.7781177-0.0039444,1.0712261c-0.0013199,0.2931085-0.0052567,0.6203909-0.009201,0.979219
		c0,0.3377976,0.0551987,0.6887388,0.1669235,1.0554533c0.1117249,0.3653994,0.1682434,0.6006746,0.1682434,0.7058258
		c0,0.1840143-0.0867462,0.3522558-0.2602463,0.5034103c-0.1721878,0.1498404-0.3680344,0.2260752-0.587532,0.2260752
		c-0.1840134,0-0.3654022-0.08675-0.5454712-0.258935C109.774704,9.5330973,109.5841141,9.2820492,109.3830109,8.9534531z
		 M109.2647171,6.3575373c-0.2628784,0.0959501-0.6453629,0.1984725-1.1474609,0.306252
		c-0.5007782,0.1064653-0.8477783,0.185329-1.0409927,0.2365899c-0.1932144,0.0499468-0.3772278,0.1485257-0.5520401,0.2957373
		c-0.1748199,0.1458969-0.2628784,0.3509417-0.2628784,0.6138191c0,0.2720785,0.1025162,0.5034103,0.308876,0.6939964
		s0.4758072,0.2852221,0.8083496,0.2852221c0.3548889,0,0.6821671-0.077549,0.9818497-0.232646
		c0.3009949-0.1564121,0.5205002-0.3561993,0.6611328-0.6019902c0.1616745-0.272078,0.2431641-0.7189698,0.2431641-1.3406754
		V6.3575373z M116.7370148,9.2229023l-1.3012466-1.9124341l-1.3341064,1.9124341
		c-0.1932144,0.2668209-0.3561935,0.457407-0.4902649,0.5717583c-0.1327515,0.1143522-0.3023071,0.1708708-0.508667,0.1708708
		c-0.2273865,0-0.4219208-0.0709772-0.5822754-0.2129307c-0.1590424-0.1432686-0.2392197-0.3062525-0.2392197-0.4902668
		c0-0.1879578,0.1222382-0.457407,0.3680344-0.8083487l1.6232681-2.3264661l-1.4392548-1.9387212
		c-0.249733-0.3193965-0.3746033-0.5980465-0.3746033-0.8346364c0-0.1840141,0.0749207-0.3443694,0.2234497-0.4797513
		c0.1485214-0.1353819,0.344368-0.2037301,0.5848999-0.2037301c0.2103043,0,0.3838043,0.0591474,0.5218124,0.1774423
		s0.2996826,0.3049378,0.483696,0.5586147l1.1632309,1.590409l1.1303711-1.590409
		c0.1879578-0.2628775,0.3509445-0.450835,0.4889526-0.5651867c0.1380157-0.1143517,0.3101959-0.1708703,0.5165558-0.1708703
		c0.2365875,0,0.4324341,0.0670338,0.587532,0.2011013c0.1564102,0.1327531,0.233963,0.2944229,0.233963,0.4823802
		c0,0.1353819-0.0315475,0.2668207-0.0959549,0.3916876c-0.0630875,0.1248667-0.1603546,0.272078-0.2917938,0.4429488
		l-1.4392548,1.9387212l1.6232681,2.3264661c0.2536774,0.3640852,0.3811722,0.6374779,0.3811722,0.8214922
		c0,0.1879578-0.0788574,0.3509417-0.2365875,0.4863234c-0.1577225,0.1353827-0.3522568,0.2037306-0.5848999,0.2037306
		c-0.2063599,0-0.3798599-0.0591478-0.5231247-0.1774426C117.0840073,9.6697941,116.9210281,9.4818363,116.7370148,9.2229023z
		 M125.004509,7.3762207V8.874589c0,0.3640862-0.085434,0.6361637-0.2563019,0.8188639
		c-0.1708755,0.181386-0.3877487,0.2720785-0.6506271,0.2720785c-0.258934,0-0.4705505-0.0920076-0.6374741-0.276022
		c-0.1669312-0.1840143-0.249733-0.4560919-0.249733-0.8149204V3.8799167c0-0.8057196,0.2917938-1.2092371,0.8740692-1.2092371
		c0.2983627,0,0.5126114,0.094636,0.644043,0.2825935c0.1314392,0.1879573,0.2037354,0.4666076,0.2168808,0.8346362
		c0.214241-0.3680286,0.4350586-0.6466789,0.6598206-0.8346362c0.2260742-0.1879575,0.5270691-0.2825935,0.9042969-0.2825935
		s0.74263,0.094636,1.0975113,0.2825935c0.3548889,0.1879573,0.5323334,0.437691,0.5323334,0.7492008
		c0,0.2195029-0.0762329,0.399574-0.2273941,0.5428421c-0.1511536,0.1419539-0.3141403,0.2129307-0.4889526,0.2129307
		c-0.0657196,0-0.224762-0.0407457-0.4771194-0.1209235c-0.2510529-0.0814919-0.4731827-0.1222382-0.6663971-0.1222382
		c-0.2628784,0-0.4771194,0.0696626-0.6440506,0.2076735c-0.1669235,0.1380105-0.2957382,0.3417406-0.3877411,0.6138186
		c-0.0920105,0.2720785-0.155098,0.595418-0.1905899,0.9700179C125.0215988,6.3811946,125.004509,6.8372884,125.004509,7.3762207z
		 M133.7911987,6.7584252h-3.5094147c0.0039368,0.4074602,0.0867462,0.7662883,0.2457886,1.0777979
		c0.1603546,0.3115096,0.3732758,0.5454707,0.6374664,0.703197c0.2655182,0.1577272,0.5586243,0.2365904,0.8780212,0.2365904
		c0.2142334,0,0.41008-0.0249739,0.5875244-0.0749207c0.1774445-0.0512609,0.3496246-0.1301241,0.5165558-0.2365894
		c0.1669312-0.1077795,0.319397-0.2234459,0.4600372-0.3456841c0.1406403-0.1222377,0.3220215-0.289165,0.5454712-0.4994674
		c0.0920105-0.0788631,0.2234497-0.1182947,0.3943176-0.1182947c0.1840057,0,0.3325348,0.0499468,0.4468842,0.1511545
		c0.1143646,0.1012077,0.1708832,0.2431617,0.1708832,0.427176c0,0.1616697-0.0630951,0.3522558-0.1905975,0.5691299
		c-0.1274872,0.2168741-0.319397,0.4245472-0.5756989,0.6243343c-0.2563019,0.198472-0.5783234,0.3640852-0.9660797,0.4955244
		c-0.3877411,0.1314383-0.833313,0.1971579-1.336731,0.1971579c-1.15271,0-2.0478058-0.3285971-2.687912-0.9857912
		c-0.6401062-0.6571932-0.9595032-1.5483484-0.9595032-2.6747785c0-0.5296984,0.0788574-1.0212793,0.2365875-1.4747424
		s0.3877411-0.8425226,0.6900482-1.1671762c0.3023071-0.3246191,0.6742859-0.5730731,1.1172333-0.7452579
		c0.4429474-0.1734991,0.9332123-0.2602487,1.4721069-0.2602487c0.7005768,0,1.3025665,0.1485257,1.8033447,0.444263
		c0.5020905,0.2957373,0.878006,0.6769097,1.1277466,1.1461458c0.2497253,0.4692364,0.3746033,0.9463592,0.3746033,1.432682
		c0,0.4508352-0.1288147,0.7439437-0.3877563,0.8780112C134.6231995,6.6913915,134.2604218,6.7584252,133.7911987,6.7584252z
		 M130.2817841,5.7397747h3.2530975c-0.0433655-0.6138186-0.2089844-1.0725398-0.4968414-1.376163
		c-0.2865295-0.3049378-0.6637573-0.457407-1.1329956-0.457407c-0.4468842,0-0.8135986,0.155098-1.1014557,0.4639788
		C130.5170593,4.6790643,130.3435516,5.1351566,130.2817841,5.7397747z M142.5581512,7.619349
		c0,0.4955239-0.1209106,0.918757-0.3614502,1.2723279c-0.2405396,0.3522558-0.5967255,0.6190758-1.0686035,0.8017759
		c-0.4705505,0.181386-1.0436249,0.2720785-1.7178955,0.2720785c-0.6440582,0-1.1960907-0.0985794-1.6561279-0.2957373
		s-0.7991486-0.4429483-1.0186615-0.7386856c-0.2194977-0.2957373-0.3285828-0.5927896-0.3285828-0.8911552
		c0-0.1971583,0.0696564-0.3653998,0.2102966-0.5060391c0.1406403-0.1406398,0.3180847-0.2103019,0.5323181-0.2103019
		c0.1879578,0,0.33255,0.0460033,0.4337616,0.1380105c0.1011963,0.0920072,0.1971588,0.2208171,0.2891541,0.3877444
		c0.184021,0.319396,0.4035187,0.5586147,0.6598206,0.716341c0.2563171,0.1577263,0.6059418,0.2365904,1.0488892,0.2365904
		c0.3588257,0,0.653244-0.0801449,0.8832703-0.2392187c0.230011-0.1603556,0.3456879-0.3430557,0.3456879-0.5494146
		c0-0.3154526-0.1196136-0.5454707-0.3588409-0.690053c-0.2378998-0.1445827-0.6309052-0.2825937-1.1790009-0.4140325
		c-0.6177673-0.1537833-1.12117-0.3141384-1.5089111-0.4823799c-0.3877411-0.1695561-0.6966248-0.3916879-0.9292755-0.6677094
		c-0.2326508-0.276021-0.3483124-0.6151328-0.3483124-1.0186496c0-0.3588281,0.1077728-0.699254,0.3220215-1.0186505
		s0.5310211-0.5743873,0.9489899-0.7649736c0.4192963-0.1905861,0.9240112-0.2865365,1.5154877-0.2865365
		c0.463974,0,0.881958,0.0486324,1.251297,0.1445827c0.3706665,0.0959501,0.6795349,0.2260747,0.926651,0.3877442
		c0.2484131,0.1616697,0.4363708,0.3417408,0.5651855,0.5388989c0.130127,0.1971583,0.194519,0.3903732,0.194519,0.5783305
		c0,0.2063589-0.0696564,0.3746004-0.2076721,0.5060396c-0.1380005,0.1314387-0.333847,0.1971579-0.5875244,0.1971579
		c-0.184021,0-0.3404236-0.0525756-0.4705505-0.1577263c-0.1288147-0.1051512-0.2760315-0.2628775-0.4429474-0.4731798
		c-0.1353912-0.1748133-0.2957458-0.3154531-0.4797516-0.420604c-0.184021-0.1051509-0.4337463-0.1577268-0.7492065-0.1577268
		c-0.324646,0-0.594101,0.0696626-0.8083496,0.2076733c-0.2142487,0.1380105-0.3220215,0.3088808-0.3220215,0.5152397
		c0,0.1879578,0.0788574,0.3430552,0.2365875,0.4639788c0.1577301,0.1196094,0.3706665,0.2195024,0.6374817,0.2983661
		c0.2668152,0.0788631,0.6348419,0.1748133,1.1040802,0.289165c0.5559845,0.1353822,1.0107727,0.2983661,1.3630219,0.4863234
		c0.3535767,0.1879578,0.6203918,0.4114037,0.8017731,0.6677089C142.4674683,6.9989581,142.5581512,7.2907524,142.5581512,7.619349z
		 M149.0840912,6.7584252h-3.5094147c0.0039368,0.4074602,0.0867462,0.7662883,0.2457886,1.0777979
		c0.1603546,0.3115096,0.373291,0.5454707,0.6374817,0.703197c0.2655029,0.1577272,0.558609,0.2365904,0.878006,0.2365904
		c0.2142487,0,0.4100952-0.0249739,0.5875397-0.0749207c0.1774445-0.0512609,0.3496246-0.1301241,0.5165558-0.2365894
		c0.1669159-0.1077795,0.319397-0.2234459,0.460022-0.3456841c0.1406403-0.1222377,0.3220367-0.289165,0.5454712-0.4994674
		c0.0920105-0.0788631,0.2234497-0.1182947,0.3943176-0.1182947c0.184021,0,0.33255,0.0499468,0.4468994,0.1511545
		s0.1708679,0.2431617,0.1708679,0.427176c0,0.1616697-0.0630951,0.3522558-0.1905823,0.5691299
		c-0.1275024,0.2168741-0.319397,0.4245472-0.5756989,0.6243343c-0.2563171,0.198472-0.5783386,0.3640852-0.9660797,0.4955244
		c-0.3877411,0.1314383-0.8333282,0.1971579-1.336731,0.1971579c-1.1527252,0-2.047821-0.3285971-2.6879272-0.9857912
		c-0.6401062-0.6571932-0.9595032-1.5483484-0.9595032-2.6747785c0-0.5296984,0.0788727-1.0212793,0.2365875-1.4747424
		c0.1577301-0.4534631,0.3877411-0.8425226,0.6900635-1.1671762c0.3023071-0.3246191,0.6742706-0.5730731,1.117218-0.7452579
		c0.4429474-0.1734991,0.9332275-0.2602487,1.4721222-0.2602487c0.7005615,0,1.3025513,0.1485257,1.8033447,0.444263
		c0.5020905,0.2957373,0.878006,0.6769097,1.1277313,1.1461458c0.2497406,0.4692364,0.3746033,0.9463592,0.3746033,1.432682
		c0,0.4508352-0.1287994,0.7439437-0.3877411,0.8780112C149.9160919,6.6913915,149.5533295,6.7584252,149.0840912,6.7584252z
		 M145.5746765,5.7397747h3.2531128c-0.0433807-0.6138186-0.2089844-1.0725398-0.4968414-1.376163
		c-0.2865295-0.3049378-0.6637726-0.457407-1.1329956-0.457407c-0.4468994,0-0.8136139,0.155098-1.1014709,0.4639788
		C145.8099518,4.6790643,145.6364594,5.1351566,145.5746765,5.7397747z M156.6063385,8.9534531
		c-0.4311218,0.3377972-0.8517303,0.5901594-1.2565613,0.759716c-0.4048309,0.1682415-0.8569794,0.2523623-1.3617096,0.2523623
		c-0.4626617,0-0.8674927-0.0906925-1.2144928-0.2720785c-0.3470001-0.1827002-0.6151276-0.4284906-0.8043976-0.7399998
		c-0.18927-0.3115101-0.283905-0.6479931-0.283905-1.0120788c0-0.4902668,0.1577148-0.9095564,0.4679108-1.2552404
		s0.7386932-0.5783305,1.2828522-0.6966252c0.1130371-0.026288,0.3943176-0.0854354,0.8464661-0.1774426
		s0.8359375-0.1761279,1.161911-0.2523623c0.3207092-0.077549,0.6677094-0.1708703,1.0462494-0.2799644
		C156.469635,4.80656,156.375,4.4595618,156.2067566,4.2387443c-0.1682434-0.2221313-0.5204926-0.3325398-1.0515137-0.3325398
		c-0.4521484,0-0.7991486,0.0630906-1.0252228,0.1905863c-0.2313232,0.1274953-0.4311066,0.3180819-0.594101,0.5717583
		c-0.1629791,0.2536769-0.2786407,0.4219184-0.3470001,0.5034108c-0.0683441,0.0801773-0.2155609,0.120923-0.4363708,0.120923
		c-0.2024231,0-0.37854-0.064405-0.5257568-0.1932144c-0.144577-0.1301246-0.2181854-0.2957373-0.2181854-0.4968386
		c0-0.3154531,0.1130371-0.6217055,0.333847-0.9200714c0.2260742-0.2983661,0.5730743-0.5428421,1.0462646-0.7360573
		c0.473175-0.1932149,1.0620117-0.2891653,1.7665253-0.2891653c0.7886353,0,1.4090271,0.0933216,1.8611755,0.2799647
		c0.4521484,0.1853287,0.7676086,0.4797516,0.9568787,0.8832686c0.1840057,0.4035168,0.278656,0.9371581,0.278656,1.6035523
		c0,0.4206042,0,0.7781177-0.0052643,1.0712261c0,0.2931085-0.0052795,0.6203909-0.0105133,0.979219
		c0,0.3377976,0.0578308,0.6887388,0.1682434,1.0554533c0.1156616,0.3653994,0.1682434,0.6006746,0.1682434,0.7058258
		c0,0.1840143-0.0841217,0.3522558-0.2576294,0.5034103c-0.1734924,0.1498404-0.3680267,0.2260752-0.5888367,0.2260752
		c-0.184021,0-0.3680267-0.08675-0.5467834-0.258935C157.0006561,9.5330973,156.8113708,9.2820492,156.6063385,8.9534531z
		 M156.4906616,6.3575373c-0.2628784,0.0959501-0.6466675,0.1984725-1.1461487,0.306252
		c-0.504715,0.1064653-0.8517151,0.185329-1.0409851,0.2365899c-0.1945343,0.0499468-0.37854,0.1485257-0.5520477,0.2957373
		c-0.1761322,0.1458969-0.2628784,0.3509417-0.2628784,0.6138191c0,0.2720785,0.0998993,0.5034103,0.3075714,0.6939964
		s0.4757996,0.2852221,0.8070374,0.2852221c0.3575134,0,0.6834717-0.077549,0.9831543-0.232646
		c0.2996674-0.1564121,0.5205078-0.3561993,0.6624603-0.6019902c0.1629791-0.272078,0.2418365-0.7189698,0.2418365-1.3406754
		V6.3575373z M161.853363,7.3762207V8.874589c0,0.3640862-0.0867462,0.6361637-0.2576141,0.8188639
		c-0.1708679,0.181386-0.3864288,0.2720785-0.6493073,0.2720785c-0.2576141,0-0.4705505-0.0920076-0.6387939-0.276022
		c-0.1656189-0.1840143-0.2497406-0.4560919-0.2497406-0.8149204V3.8799167c0-0.8057196,0.2918091-1.2092371,0.8753662-1.2092371
		c0.2970734,0,0.5126343,0.094636,0.6440735,0.2825935c0.1314392,0.1879573,0.2024231,0.4666076,0.2155609,0.8346362
		c0.2155609-0.3680286,0.4363708-0.6466789,0.6624451-0.8346362c0.2260742-0.1879575,0.5257568-0.2825935,0.9016724-0.2825935
		c0.37854,0,0.7439423,0.094636,1.0988312,0.2825935c0.3548889,0.1879573,0.5310059,0.437691,0.5310059,0.7492008
		c0,0.2195029-0.0735931,0.399574-0.2260742,0.5428421c-0.1498413,0.1419539-0.3128204,0.2129307-0.4889526,0.2129307
		c-0.0657196,0-0.2234344-0.0407457-0.4757996-0.1209235c-0.2523651-0.0814919-0.4758148-0.1222382-0.6677094-0.1222382
		c-0.2628784,0-0.4784393,0.0696626-0.6440582,0.2076735c-0.1656036,0.1380105-0.2970428,0.3417406-0.3890533,0.6138186
		c-0.0920105,0.2720785-0.1550903,0.595418-0.18927,0.9700179C161.8717651,6.3811946,161.853363,6.8372884,161.853363,7.3762207z
		 M172.0503845,7.744216c0,0.2234459-0.0657196,0.4626646-0.1997833,0.716341
		c-0.1340637,0.2536774-0.3391113,0.4968386-0.6125031,0.7268572c-0.2733917,0.2300177-0.6177673,0.414032-1.0357361,0.5546713
		c-0.4153442,0.1406393-0.8832703,0.2103014-1.4064026,0.2103014c-1.1067047,0-1.9715729-0.3233385-2.5946045-0.9687033
		c-0.6230164-0.6466789-0.9332123-1.5128603-0.9332123-2.5998588c0-0.7360573,0.1419525-1.3866787,0.4258728-1.9518652
		c0.2865143-0.5651865,0.6966248-1.0015633,1.2355194-1.3104444s1.1829529-0.4639788,1.9321442-0.4639788
		c0.4653015,0,0.8911591,0.0683482,1.2802124,0.2037301c0.3864288,0.1353819,0.7150269,0.3115098,0.9857941,0.5257549
		c0.2681427,0.2142453,0.4758148,0.444263,0.6177673,0.6874247s0.2129211,0.4692364,0.2129211,0.6795387
		c0,0.2142448-0.0788574,0.396945-0.239212,0.5454702c-0.1603546,0.1485257-0.3549042,0.2234459-0.5835876,0.2234459
		c-0.1472168,0-0.2707672-0.0381174-0.3706512-0.1143517c-0.0972748-0.077549-0.2076874-0.2011013-0.3312378-0.3719716
		c-0.2181854-0.33254-0.4468842-0.5822735-0.6861115-0.7492008c-0.239212-0.1669273-0.5441437-0.2497339-0.9121857-0.2497339
		c-0.5283813,0-0.9568634,0.2076735-1.2802124,0.6217055c-0.3233337,0.414032-0.4863129,0.9792185-0.4863129,1.6981888
		c0,0.3377976,0.0420532,0.6479931,0.1235504,0.9305863c0.0841217,0.2825933,0.2050476,0.5231261,0.3627625,0.7229133
		c0.1577301,0.198472,0.3470001,0.3496265,0.5704498,0.4534636c0.2234497,0.1025219,0.4705505,0.1537838,0.7360535,0.1537838
		c0.3601532,0,0.6677094-0.0828066,0.9253387-0.2497339c0.2549896-0.1669273,0.4810638-0.4206042,0.6782227-0.7623448
		c0.1103973-0.2011013,0.2286987-0.3588281,0.3548737-0.4731798c0.1288147-0.1143517,0.2839203-0.1708703,0.467926-0.1708703
		c0.2181854,0,0.3995819,0.0828066,0.5441589,0.2497339C171.9767761,7.3788161,172.0503845,7.5562587,172.0503845,7.744216z
		 M175.0340424,1.0934145v2.6616352c0.228714-0.2628775,0.4495239-0.4705508,0.6677094-0.6243341
		c0.2155609-0.1537833,0.4547882-0.2681351,0.7176666-0.3443694c0.2628784-0.077549,0.5467834-0.1156662,0.8490906-0.1156662
		c0.4547729,0,0.8596039,0.0959501,1.2118683,0.2891653c0.3522491,0.1932149,0.6309052,0.4731796,0.8306885,0.841208
		c0.1287842,0.2142451,0.2129364,0.4547784,0.2576141,0.7202847c0.044693,0.2641916,0.0657196,0.5704441,0.0657196,0.9161277
		V8.874589c0,0.3588285-0.0814819,0.6309061-0.2471008,0.8149204c-0.1629791,0.1840143-0.3811646,0.276022-0.6545715,0.276022
		c-0.5914612,0-0.8858948-0.3640852-0.8858948-1.0909424V5.8449259c0-0.5743876-0.0867462-1.0147071-0.2576141-1.3235879
		c-0.1708679-0.3088813-0.4942169-0.4639792-0.972641-0.4639792c-0.3180847,0-0.607254,0.090693-0.8622437,0.2733927
		c-0.2576141,0.1813855-0.4495239,0.4298048-0.5756989,0.7452579c-0.0972748,0.2668204-0.1445923,0.7426291-0.1445923,1.4261103
		V8.874589c0,0.3548851-0.0788574,0.6256495-0.239212,0.8122921c-0.1603546,0.1853285-0.3838043,0.2786503-0.6677094,0.2786503
		c-0.5914764,0-0.8885193-0.3640852-0.8885193-1.0909424V1.0934144c0-0.3640853,0.0788574-0.6361635,0.2339478-0.817549
		c0.1551056-0.1826999,0.373291-0.2733926,0.6545715-0.2733926c0.283905,0,0.5073547,0.0920072,0.6677094,0.2760215
		S175.0340424,0.7345867,175.0340424,1.0934145z M182.5628662,2.2106442c0-0.4074602,0.1077728-0.7781175,0.3207092-1.1132864
		c0.2129211-0.3351688,0.5231171-0.6019895,0.9358368-0.7991477s0.8964081-0.2957373,1.4510803-0.2957373
		c0.5520477,0,1.0304871,0.1025221,1.4326935,0.3088811c0.4048309,0.206359,0.7045135,0.4758083,0.9042969,0.8083485
		s0.2996826,0.6795384,0.2996826,1.0383663c0,0.4902668-0.1629944,0.9174428-0.4863281,1.2815282
		s-0.8017731,0.7334285-1.4326782,1.1106577c0.2181854,0.258934,0.423233,0.5020957,0.6098785,0.729485
		c0.18927,0.2273889,0.3706512,0.44032,0.5467834,0.6374779c0.1761169,0.1971583,0.333847,0.3653998,0.4784241,0.5060391
		c0.0657196-0.1222377,0.1682434-0.3522558,0.3075714-0.6900535c0.1367035-0.3377976,0.2655029-0.5809588,0.3864288-0.7294846
		s0.2917938-0.2234459,0.5099792-0.2234459c0.2050476,0,0.3864441,0.0736055,0.5441589,0.2208171
		c0.1577301,0.1458969,0.2365875,0.3246531,0.2365875,0.5349555c0,0.1932149-0.0657196,0.4652929-0.2024078,0.8188634
		c-0.1367035,0.3522558-0.3338623,0.7426291-0.5914764,1.1724339c0.1629791,0.1406393,0.4206085,0.3522558,0.7728577,0.6374779
		c0.3522644,0.2852221,0.5678253,0.4784374,0.6493073,0.5822735c0.0814972,0.1025229,0.1209259,0.2392187,0.1209259,0.4100895
		c0,0.2273884-0.0814972,0.4192896-0.2444763,0.5757017c-0.1656189,0.155098-0.3470001,0.2326469-0.549408,0.2326469
		c-0.2050476,0-0.4048309-0.0657196-0.5993652-0.1971588c-0.1918945-0.1314383-0.6019897-0.4534636-1.2276306-0.9660749
		c-0.2839203,0.2668209-0.5783386,0.4863234-0.8832703,0.6571941c-0.3049469,0.1708698-0.6309052,0.2983656-0.980545,0.3811722
		c-0.3469849,0.0828066-0.7360535,0.1248674-1.1671753,0.1248674c-0.5467834,0-1.0383606-0.0801783-1.4747314-0.2392187
		c-0.4363861-0.1603556-0.7991486-0.3759155-1.0883179-0.6479931c-0.2891693-0.2720785-0.5020905-0.5730743-0.6440582-0.9029856
		c-0.1393127-0.3312254-0.2102966-0.6677089-0.2102966-1.0094495c0-0.3285971,0.0525818-0.6295915,0.1577301-0.9029841
		c0.1051483-0.2747073,0.2549896-0.521812,0.4442596-0.7426291c0.1918945-0.2221317,0.4258575-0.4324331,0.7045135-0.6309061
		c0.278656-0.1997867,0.5993652-0.3943162,0.967392-0.5822735c-0.328598-0.4114034-0.5756989-0.7781174-0.7439423-1.1001425
		S182.5628662,2.5523851,182.5628662,2.2106442z M184.4240265,5.3586025
		c-0.4468842,0.2589345-0.7807465,0.5165544-1.0015564,0.7754889c-0.2208099,0.258934-0.3338623,0.5651865-0.3338623,0.9200711
		c0,0.2011013,0.0420685,0.3943162,0.1235657,0.5783305c0.0814819,0.1840143,0.1997833,0.3548846,0.3548737,0.5126114
		c0.1551056,0.1577263,0.3364868,0.2786503,0.5415344,0.3614569c0.2050476,0.0828056,0.423233,0.1248665,0.6493073,0.1248665
		c0.2234497,0,0.4416351-0.0354881,0.6519318-0.1051512c0.2103119-0.0696621,0.4100952-0.1695557,0.5967407-0.2983656
		c0.18927-0.130125,0.3837891-0.2904801,0.5862122-0.483695c-0.3890533-0.3588276-0.7413177-0.7150269-1.0515137-1.0672827
		C185.2310638,6.3233628,184.8577881,5.8843575,184.4240265,5.3586025z M185.0943756,3.5578916
		c0.4468842-0.2852221,0.7702332-0.5244405,0.9700165-0.7189701c0.1997833-0.1958437,0.2970428-0.4311192,0.2970428-0.7071409
		c0-0.2720782-0.0972595-0.4994673-0.2970428-0.6834817s-0.4521484-0.2760215-0.7544556-0.2760215
		c-0.3023224,0-0.5546722,0.0946361-0.7570953,0.2825935c-0.2050476,0.1879574-0.3075714,0.4100891-0.3075714,0.6637657
		c0,0.1314387,0.039444,0.2733924,0.1156769,0.4245474c0.0762329,0.1511545,0.1734924,0.3009949,0.2865295,0.4495206
		S184.9103546,3.3305025,185.0943756,3.5578916z M193.288269,3.6761866v0.2168739
		c0.3391113-0.4166608,0.688736-0.7215989,1.0514984-0.9161282c0.3654022-0.1958437,0.7754974-0.2931085,1.2355347-0.2931085
		c0.5520325,0,1.062027,0.1419539,1.5246887,0.427176c0.4652863,0.2852221,0.833313,0.7005687,1.1014557,1.2486684
		c0.2707672,0.5480995,0.4048309,1.1960921,0.4048309,1.9452934c0,0.5520425-0.0788574,1.0593963-0.233963,1.5220609
		c-0.1550903,0.4613504-0.3680267,0.8490944-0.6414185,1.1632328c-0.2707672,0.3128242-0.5914764,0.5533571-0.9621277,0.7229137
		c-0.3706665,0.1682415-0.7676086,0.2523623-1.1934662,0.2523623c-0.512619,0-0.9411011-0.1025229-1.2907257-0.3088808
		c-0.3470001-0.2063589-0.6808624-0.5086689-0.9963074-0.9069281v2.6944952c0,0.7886324-0.2865448,1.1829481-0.8596191,1.1829481
		c-0.3364716,0-0.5599213-0.1025219-0.6703339-0.3062515c-0.1104126-0.2037306-0.1656189-0.4994678-0.1656189-0.8898411V3.6893303
		c0-0.3417406,0.0762482-0.5967319,0.2234497-0.7649736c0.1498413-0.1695559,0.3548889-0.2536767,0.6125031-0.2536767
		c0.2549896,0,0.4600372,0.0867496,0.6203918,0.2602487C193.2093964,3.1031134,193.288269,3.3515327,193.288269,3.6761866z
		 M196.8055725,6.2852459c0-0.4731798-0.0736084-0.8793254-0.2182007-1.2184372
		c-0.144577-0.3404264-0.3443604-0.6006751-0.59935-0.7820606c-0.2576294-0.1827002-0.5415344-0.2733579-0.8517303-0.2733579
		c-0.4942017,0-0.9121857,0.1944947-1.251297,0.5848675c-0.3391113,0.3903732-0.5099792,0.9634461-0.5099792,1.7218475
		c0,0.7137127,0.1682434,1.2696986,0.5047302,1.6666436c0.3391113,0.3956308,0.7570801,0.5941038,1.256546,0.5941038
		c0.2970581,0,0.5730743-0.08675,0.828064-0.258935c0.2549896-0.1734991,0.4574127-0.4337478,0.6098785-0.7794318
		C196.7293243,7.1948018,196.8055725,6.7755122,196.8055725,6.2852459z M200.04422,8.874589V1.0934144
		c0-0.3588278,0.0814819-0.630906,0.2418365-0.8149204s0.3759155-0.2760215,0.6466827-0.2760215
		s0.4915771,0.0906927,0.657196,0.2733927c0.1656189,0.1813855,0.2497406,0.4534637,0.2497406,0.817549V8.874589
		c0,0.3640862-0.0841217,0.6361637-0.2523651,0.8188639c-0.1682434,0.181386-0.3864288,0.2720785-0.6545715,0.2720785
		c-0.2628784,0-0.4757996-0.094636-0.6414185-0.2825937C200.1283417,9.4949808,200.04422,9.2255306,200.04422,8.874589z
		 M208.2249603,8.9534531c-0.4337463,0.3377972-0.8517151,0.5901594-1.256546,0.759716
		c-0.4048309,0.1682415-0.8596191,0.2523623-1.3643341,0.2523623c-0.4600372,0-0.8648682-0.0906925-1.2118683-0.2720785
		c-0.3496246-0.1827002-0.6177673-0.4284906-0.8070374-0.7399998c-0.1866455-0.3115101-0.2812805-0.6479931-0.2812805-1.0120788
		c0-0.4902668,0.1551056-0.9095564,0.4653015-1.2552404c0.3128204-0.3456841,0.738678-0.5783305,1.2828369-0.6966252
		c0.1130371-0.026288,0.3969421-0.0854354,0.8464661-0.1774426c0.4521484-0.0920072,0.8385773-0.1761279,1.1619263-0.2523623
		c0.3207092-0.077549,0.6703339-0.1708703,1.0462494-0.2799644c-0.0210419-0.4731793-0.1156769-0.8201776-0.283905-1.0409951
		c-0.1682434-0.2221313-0.517868-0.3325398-1.0488892-0.3325398c-0.4547729,0-0.7991486,0.0630906-1.0278473,0.1905863
		c-0.2313385,0.1274953-0.4284973,0.3180819-0.5914764,0.5717583c-0.1656189,0.2536769-0.2812805,0.4219184-0.3496246,0.5034108
		c-0.0683441,0.0801773-0.2129364,0.120923-0.4363861,0.120923c-0.2024078,0-0.3759155-0.064405-0.5231171-0.1932144
		c-0.1472168-0.1301246-0.2208252-0.2957373-0.2208252-0.4968386c0-0.3154531,0.1130371-0.6217055,0.3364868-0.9200714
		s0.5704498-0.5428421,1.0436249-0.7360573c0.473175-0.1932149,1.0646515-0.2891653,1.769165-0.2891653
		c0.7886353,0,1.4090271,0.0933216,1.858551,0.2799647c0.4521484,0.1853287,0.7702179,0.4797516,0.9568634,0.8832686
		s0.278656,0.9371581,0.278656,1.6035523c0,0.4206042,0,0.7781177-0.0026245,1.0712261
		c-0.0026398,0.2931085-0.0052643,0.6203909-0.0105133,0.979219c0,0.3377976,0.0578308,0.6887388,0.1682281,1.0554533
		c0.1130371,0.3653994,0.1682434,0.6006746,0.1682434,0.7058258c0,0.1840143-0.0867462,0.3522558-0.2602386,0.5034103
		c-0.1735077,0.1498404-0.3680267,0.2260752-0.5888519,0.2260752c-0.184021,0-0.3654022-0.08675-0.5441589-0.258935
		C208.619278,9.5330973,208.4273834,9.2820492,208.2249603,8.9534531z M208.1066742,6.3575373
		c-0.2628784,0.0959501-0.6440582,0.1984725-1.1461487,0.306252c-0.5020905,0.1064653-0.8490906,0.185329-1.0410004,0.2365899
		c-0.1918945,0.0499468-0.3759155,0.1485257-0.5520325,0.2957373c-0.1761322,0.1458969-0.2628784,0.3509417-0.2628784,0.6138191
		c0,0.2720785,0.1025238,0.5034103,0.3075562,0.6939964c0.2076721,0.1905861,0.4758148,0.2852221,0.8096619,0.2852221
		c0.3548889,0,0.6834869-0.077549,0.9831696-0.232646c0.2996826-0.1564121,0.5204926-0.3561993,0.6598206-0.6019902
		c0.1629791-0.272078,0.2418518-0.7189698,0.2418518-1.3406754V6.3575373z M213.3169098,3.6630428v0.2168739
		c0.3154449-0.416661,0.6624451-0.7215989,1.0357361-0.9161282c0.3759155-0.1958439,0.8043976-0.2931085,1.2907257-0.2931085
		c0.4731598,0,0.8964081,0.1025221,1.2696991,0.308881c0.3732758,0.2063589,0.6493073,0.4968386,0.833313,0.8740678
		c0.1183014,0.2195027,0.1971588,0.4560926,0.2313385,0.7097695s0.0525818,0.5783305,0.0525818,0.9726462V8.874589
		c0,0.3588285-0.0814972,0.6309061-0.2471161,0.8149204c-0.1629791,0.1840143-0.37854,0.276022-0.6414185,0.276022
		c-0.2655029,0-0.4836884-0.094636-0.6493073-0.2825937c-0.1656189-0.1879568-0.2497253-0.457407-0.2497253-0.8083487V5.8843575
		c0-0.5914745-0.0814972-1.0436234-0.2471161-1.3564472c-0.1629791-0.3141389-0.4915771-0.470551-0.9831543-0.470551
		c-0.3180847,0-0.6098785,0.0959506-0.872757,0.2865367s-0.4547729,0.4521494-0.5783234,0.7846894
		c-0.0867615,0.2668204-0.1314392,0.7662873-0.1314392,1.4984012V8.874589c0,0.3640862-0.0841217,0.6361637-0.2523651,0.8188639
		c-0.1682434,0.181386-0.3864288,0.2720785-0.6545715,0.2720785c-0.2576141,0-0.4705505-0.094636-0.6387939-0.2825937
		c-0.1656036-0.1879568-0.2497253-0.457407-0.2497253-0.8083487V3.6893303c0-0.3417406,0.0762329-0.5967319,0.2234344-0.7649736
		c0.1498413-0.1695559,0.3548889-0.2536767,0.6125183-0.2536767c0.1577148,0,0.2996674,0.0368028,0.4258575,0.1117229
		c0.1288147,0.0749199,0.2313232,0.1866429,0.3075714,0.3351688C213.2801056,3.2660975,213.3169098,3.4487975,213.3169098,3.6630428
		z M221.4450836,3.6630428v0.2168739c0.3154449-0.416661,0.6624451-0.7215989,1.0357361-0.9161282
		c0.3759155-0.1958439,0.8043976-0.2931085,1.2907257-0.2931085c0.473175,0,0.8964081,0.1025221,1.2696991,0.308881
		c0.3732758,0.2063589,0.6493073,0.4968386,0.8332977,0.8740678c0.1183167,0.2195027,0.1971741,0.4560926,0.2313538,0.7097695
		s0.0525818,0.5783305,0.0525818,0.9726462V8.874589c0,0.3588285-0.0814972,0.6309061-0.2471161,0.8149204
		c-0.1629791,0.1840143-0.37854,0.276022-0.6414185,0.276022c-0.2655029,0-0.4836884-0.094636-0.6493073-0.2825937
		c-0.1656189-0.1879568-0.2497406-0.457407-0.2497406-0.8083487V5.8843575c0-0.5914745-0.0814819-1.0436234-0.2471008-1.3564472
		c-0.1629791-0.3141389-0.4915771-0.470551-0.9831543-0.470551c-0.3180847,0-0.6098785,0.0959506-0.872757,0.2865367
		s-0.4547729,0.4521494-0.5783386,0.7846894c-0.0867462,0.2668204-0.131424,0.7662873-0.131424,1.4984012V8.874589
		c0,0.3640862-0.0841217,0.6361637-0.2523651,0.8188639c-0.1682434,0.181386-0.3864288,0.2720785-0.6545715,0.2720785
		c-0.2576141,0-0.4705505-0.094636-0.6387939-0.2825937c-0.1656036-0.1879568-0.2497253-0.457407-0.2497253-0.8083487V3.6893303
		c0-0.3417406,0.0762329-0.5967319,0.2234344-0.7649736c0.1498413-0.1695559,0.3548889-0.2536767,0.6125183-0.2536767
		c0.1577148,0,0.2996674,0.0368028,0.4258575,0.1117229c0.1287994,0.0749199,0.2313232,0.1866429,0.3075562,0.3351688
		C221.4082794,3.2660975,221.4450836,3.4487975,221.4450836,3.6630428z M228.8503418,1.8360437
		c-0.2497406,0-0.462677-0.0762346-0.6387939-0.2300179c-0.1787567-0.1537833-0.2681427-0.3706573-0.2681427-0.6506219
		c0-0.2536769,0.0920105-0.4626645,0.2733917-0.626963c0.1813965-0.1642986,0.3943176-0.2471049,0.6335449-0.2471049
		c0.2339478,0,0.4389954,0.07492,0.6177521,0.2234458c0.1813965,0.1485258,0.2707672,0.3653998,0.2707672,0.6506218
		c0,0.2760215-0.0867462,0.491581-0.2628784,0.6479933C229.2998505,1.7584946,229.0921783,1.8360437,228.8503418,1.8360437z
		 M229.7388611,3.6893303V8.874589c0,0.3588285-0.0867462,0.6309061-0.2576141,0.8149204s-0.3864288,0.276022-0.6493073,0.276022
		s-0.4758148-0.094636-0.6414337-0.2825937c-0.1629791-0.1879568-0.2471008-0.457407-0.2471008-0.8083487V3.7419059
		c0-0.3548846,0.0841217-0.6217053,0.2471008-0.8017764c0.1656189-0.1800711,0.3785553-0.2694495,0.6414337-0.2694495
		s0.4784393,0.0893784,0.6493073,0.2694495S229.7388611,3.3699343,229.7388611,3.6893303z M233.2193604,3.6630428v0.2168739
		c0.3154602-0.416661,0.6624451-0.7215989,1.0357361-0.9161282c0.3759155-0.1958439,0.8044128-0.2931085,1.2907257-0.2931085
		c0.4731903,0,0.8964233,0.1025221,1.2696991,0.308881c0.373291,0.2063589,0.6493073,0.4968386,0.8333282,0.8740678
		c0.1182861,0.2195027,0.1971588,0.4560926,0.2313232,0.7097695c0.0341797,0.2536769,0.0525818,0.5783305,0.0525818,0.9726462
		V8.874589c0,0.3588285-0.0814972,0.6309061-0.2471008,0.8149204c-0.1629944,0.1840143-0.37854,0.276022-0.6414185,0.276022
		c-0.2655182,0-0.4837036-0.094636-0.6493073-0.2825937c-0.1656189-0.1879568-0.2497406-0.457407-0.2497406-0.8083487V5.8843575
		c0-0.5914745-0.0814972-1.0436234-0.2471008-1.3564472c-0.1629944-0.3141389-0.4915771-0.470551-0.9831696-0.470551
		c-0.3180847,0-0.6098785,0.0959506-0.872757,0.2865367c-0.2628632,0.1905861-0.4547729,0.4521494-0.5783234,0.7846894
		c-0.0867462,0.2668204-0.1314392,0.7662873-0.1314392,1.4984012V8.874589c0,0.3640862-0.0841217,0.6361637-0.2523651,0.8188639
		c-0.1682434,0.181386-0.3864288,0.2720785-0.6545563,0.2720785c-0.2576294,0-0.4705505-0.094636-0.6387939-0.2825937
		c-0.1656189-0.1879568-0.2497406-0.457407-0.2497406-0.8083487V3.6893303c0-0.3417406,0.0762329-0.5967319,0.2234497-0.7649736
		c0.1498413-0.1695559,0.3548889-0.2536767,0.6125031-0.2536767c0.1577301,0,0.2996826,0.0368028,0.4258575,0.1117229
		c0.1288147,0.0749199,0.2313385,0.1866429,0.3075714,0.3351688C233.1825562,3.2660975,233.2193604,3.4487975,233.2193604,3.6630428
		z M246.315918,3.9850676v5.2115469c0,0.595418-0.0630951,1.1080294-0.18927,1.5378342
		c-0.1261749,0.4298038-0.3312225,0.7846889-0.6125031,1.0646534c-0.278656,0.2799644-0.6466827,0.4889526-1.0988312,0.6243677
		c-0.4547729,0.1353483-1.017334,0.2036963-1.6929321,0.2036963c-0.6177673,0-1.1697998-0.0867491-1.6561279-0.2602482
		c-0.4863281-0.1721849-0.8622437-0.3956308-1.1251221-0.6703377c-0.2628632-0.2733927-0.3943024-0.5546722-0.3943024-0.8438368
		c0-0.2195034,0.0762329-0.3982601,0.2234344-0.5362701c0.1498413-0.138011,0.328598-0.2063589,0.5389099-0.2063589
		c0.2628784,0,0.4942017,0.1156654,0.6913605,0.3483124c0.0972595,0.1182947,0.1971588,0.2379045,0.2996826,0.3575134
		c0.1025238,0.120924,0.2155609,0.2234459,0.3417358,0.3088808c0.1235504,0.0854359,0.2733917,0.1498404,0.4495239,0.190587
		c0.1761322,0.0420599,0.3759155,0.0630903,0.6046143,0.0630903c0.4653015,0,0.8254395-0.0644054,1.0804291-0.1945295
		c0.2576294-0.1288099,0.4363861-0.3088808,0.5388947-0.5415277c0.1025238-0.2326469,0.1629944-0.4810658,0.1813965-0.7465725
		c0.0184021-0.2641916,0.0315399-0.690053,0.0394287-1.2775841c-0.2760162,0.3851156-0.594101,0.6795378-0.9568787,0.8806391
		c-0.3601379,0.2011013-0.7912598,0.302309-1.2907257,0.302309c-0.5993805,0-1.1251221-0.1537828-1.5746307-0.4600353
		c-0.4495239-0.3062525-0.7938995-0.7360573-1.0357361-1.2881002c-0.2392273-0.5520425-0.3601532-1.1895204-0.3601532-1.9124336
		c0-0.5388989,0.0736084-1.0252223,0.2208252-1.4589705c0.1472015-0.4337482,0.3548737-0.7991476,0.6256409-1.0975134
		c0.2733917-0.2983661,0.5862274-0.521812,0.9411011-0.6729665c0.3548889-0.1511548,0.7439423-0.2273891,1.1698151-0.2273891
		c0.5073547,0,0.9489746,0.0972648,1.3196411,0.2931085c0.373291,0.1945293,0.7202759,0.4994674,1.0383606,0.9161282V3.6498985
		c0-0.3114753,0.0788727-0.552043,0.2313385-0.7229133s0.3496246-0.2563057,0.5914764-0.2563057
		c0.3470001,0,0.5756989,0.1130373,0.688736,0.339112C246.2607117,3.2345524,246.315918,3.5605204,246.315918,3.9850676z
		 M241.1188354,6.2589579c0,0.7268567,0.1577148,1.277585,0.4757996,1.6495566s0.7281799,0.5586152,1.2328949,0.5586152
		c0.2970581,0,0.5783386-0.0801783,0.8438416-0.2392187c0.2655029-0.1603556,0.4810638-0.4008884,0.6466827-0.7229133
		c0.1682434-0.3220253,0.2497253-0.7137127,0.2497253-1.1737485c0-0.7321138-0.1603546-1.3012433-0.4810638-1.7087035
		c-0.3233337-0.4074602-0.7465668-0.6111555-1.2723236-0.6111555c-0.512619,0-0.922699,0.1944947-1.2328949,0.5848675
		C241.2739258,4.9866309,241.1188354,5.539988,241.1188354,6.2589579z"/>
</g>
</svg>
