<?xml version="1.0" encoding="utf-8"?>
<!-- Generator: Adobe Illustrator 19.2.1, SVG Export Plug-In . SVG Version: 6.00 Build 0)  -->
<svg version="1.1" id="Слой_1" xmlns="http://www.w3.org/2000/svg" xmlns:xlink="http://www.w3.org/1999/xlink" x="0px" y="0px"
	 viewBox="0 0 91.5037842 18.6375275" style="enable-background:new 0 0 91.5037842 18.6375275;" xml:space="preserve">
<style type="text/css">
	.st0{fill:#FF0066;}
	.st1{enable-background:new    ;}
	.st2{fill:#0070C0;}
	.st3{fill:#0B0B0B;}
</style>
<g id="Фон_xA0_Изображение_1_">
	<path class="st0" d="M7.7435842,14.2713003l-0.0000534,0.2094975c-0.0001392,0.5539379-0.449234,1.0029202-1.0031729,1.0029202H1
		c-0.5522847,0-1-0.4477158-1-1V8.750844c0-0.5540943,0.4492249-1.003253,1.0033188-1.0031729l0.2094951,0.0000305
		c0.5527077,0.0000801,1.0007229,0.4481602,1.0007229,1.0008678v4.5216131h4.5291786
		C7.2955785,13.2701826,7.7437224,13.7184381,7.7435842,14.2713003z M4.9044995,6.0580645h4.5211539v4.5285549
		c0,0.5526619,0.4479446,1.0007248,1.0006065,1.0008698l0.2094936,0.0000534
		c0.5541401,0.0001469,1.003437-0.4490318,1.003437-1.0031719V4.8445272c0-0.5522842-0.4477158-1-1-1H4.9068704
		c-0.553915,0-1.0030003,0.448945-1.0031729,1.0028601L3.9036317,5.0568838
		C3.9034591,5.6097698,4.3516135,6.0580645,4.9044995,6.0580645z"/>
</g>
<g id="Эллипс_1_1_" class="st1">
	<path class="st2" d="M15.6219482,6.989089h0.234375v-1.28125c0-0.34375,0.0087891-0.6132813,0.0273438-0.8085938
		c0.0180664-0.1953125,0.0688477-0.3632813,0.1523438-0.5039063c0.0830078-0.1455078,0.203125-0.2641602,0.359375-0.3554688
		c0.15625-0.0908203,0.3305664-0.1367188,0.5234375-0.1367188c0.2705078,0,0.515625,0.1015625,0.734375,0.3046875
		c0.1455078,0.1357422,0.2382813,0.3007813,0.2773438,0.4960938s0.0585938,0.4726563,0.0585938,0.8320313v1.453125h0.78125
		c0.3017578,0,0.5322266,0.0717773,0.6914063,0.2148438c0.1586914,0.1435547,0.2382813,0.3271484,0.2382813,0.5507813
		c0,0.2866211-0.1132813,0.4873047-0.3398438,0.6015625c-0.2265625,0.1147461-0.5507813,0.171875-0.9726563,0.171875h-0.3984375
		v3.921875c0,0.3334961,0.0117188,0.5898438,0.0351563,0.7695313s0.0859375,0.3256836,0.1875,0.4375
		c0.1015625,0.1123047,0.2666016,0.1679688,0.4960938,0.1679688c0.125,0,0.2939453-0.0219727,0.5078125-0.0664063
		c0.2133789-0.0439453,0.3798828-0.0664063,0.5-0.0664063c0.171875,0,0.3266602,0.0693359,0.4648438,0.2070313
		c0.1376953,0.1381836,0.2070313,0.3085938,0.2070313,0.5117188c0,0.34375-0.1875,0.6069336-0.5625,0.7890625
		s-0.9140625,0.2734375-1.6171875,0.2734375c-0.6669922,0-1.171875-0.1123047-1.515625-0.3359375
		s-0.5693359-0.5336914-0.6757813-0.9296875c-0.1069336-0.3955078-0.1601563-0.9243164-0.1601563-1.5859375v-4.09375h-0.28125
		c-0.3076172,0-0.5419922-0.0727539-0.703125-0.21875c-0.1616211-0.1455078-0.2421875-0.3305664-0.2421875-0.5546875
		c0-0.2236328,0.0844727-0.4072266,0.2539063-0.5507813C15.0526123,7.0608664,15.2987061,6.989089,15.6219482,6.989089z
		 M23.2860107,12.395339v1.78125c0,0.4326172-0.1015625,0.7568359-0.3046875,0.9726563s-0.4609375,0.3242188-0.7734375,0.3242188
		c-0.3076172,0-0.5600586-0.109375-0.7578125-0.328125c-0.1982422-0.21875-0.296875-0.5415039-0.296875-0.96875v-5.9375
		c0-0.9580078,0.3461914-1.4375,1.0390625-1.4375c0.3540039,0,0.609375,0.1123047,0.765625,0.3359375
		c0.15625,0.2241211,0.2421875,0.5546875,0.2578125,0.9921875c0.2548828-0.4375,0.5166016-0.7680664,0.7851563-0.9921875
		c0.2680664-0.2236328,0.6259766-0.3359375,1.0742188-0.3359375c0.4477539,0,0.8828125,0.1123047,1.3046875,0.3359375
		c0.421875,0.2241211,0.6328125,0.5209961,0.6328125,0.890625c0,0.2607422-0.0898438,0.4755859-0.2695313,0.6445313
		c-0.1796875,0.1694336-0.3740234,0.2539063-0.5820313,0.2539063c-0.078125,0-0.2670898-0.0478516-0.5664063-0.1445313
		c-0.2998047-0.0961914-0.5639648-0.1445313-0.7929688-0.1445313c-0.3125,0-0.5678711,0.0820313-0.765625,0.2460938
		c-0.1982422,0.1640625-0.3515625,0.4077148-0.4609375,0.7304688c-0.109375,0.3232422-0.1850586,0.7070313-0.2265625,1.1523438
		C23.3065186,11.2117453,23.2860107,11.754714,23.2860107,12.395339z M29.9344482,7.9969015V8.254714
		c0.4008789-0.4946289,0.8173828-0.8579102,1.25-1.0898438c0.4321289-0.2314453,0.921875-0.3476563,1.46875-0.3476563
		c0.65625,0,1.2602539,0.1694336,1.8125,0.5078125c0.5517578,0.3388672,0.9882813,0.8334961,1.3085938,1.484375
		c0.3203125,0.6513672,0.4804688,1.421875,0.4804688,2.3125c0,0.65625-0.0927734,1.2592773-0.2773438,1.8085938
		c-0.1850586,0.5498047-0.4389648,1.0107422-0.7617188,1.3828125c-0.3232422,0.3725586-0.7045898,0.6591797-1.1445313,0.859375
		c-0.4404297,0.2001953-0.9130859,0.3007813-1.4179688,0.3007813c-0.609375,0-1.1210938-0.1225586-1.5351563-0.3671875
		s-0.8085938-0.6040039-1.1835938-1.078125v3.203126c0,0.9375-0.3413086,1.40625-1.0234375,1.40625
		c-0.4013672,0-0.6669922-0.1210938-0.796875-0.3632813c-0.1303711-0.2421875-0.1953125-0.5952148-0.1953125-1.0585938v-9.203126
		c0-0.40625,0.0883789-0.7094727,0.265625-0.9101563c0.1767578-0.2001953,0.4189453-0.3007813,0.7265625-0.3007813
		c0.3017578,0,0.5478516,0.1030273,0.7382813,0.3085938C29.8392334,7.3162374,29.9344482,7.6116476,29.9344482,7.9969015z
		 M34.1141357,11.098464c0-0.5625-0.0859375-1.0454102-0.2578125-1.4492188
		c-0.171875-0.4033203-0.4101563-0.7133789-0.7148438-0.9296875C32.836792,8.5037374,32.4993896,8.395339,32.1297607,8.395339
		c-0.5888672,0-1.0849609,0.2319336-1.4882813,0.6953125c-0.4038086,0.4638672-0.6054688,1.1459961-0.6054688,2.046875
		c0,0.8491211,0.2001953,1.5092773,0.6015625,1.9804688c0.4008789,0.4716797,0.8984375,0.7070313,1.4921875,0.7070313
		c0.3540039,0,0.6821289-0.1025391,0.984375-0.3085938c0.3017578-0.2055664,0.5439453-0.5141602,0.7265625-0.9257813
		C34.0228271,12.1795187,34.1141357,11.6819601,34.1141357,11.098464z M5.8233647,7.7278585
		c-1.0603638,0-1.9199829,0.8596191-1.9199829,1.9199829c0,1.0604248,0.8596191,1.9200439,1.9199829,1.9200439
		c1.0604248,0,1.9199829-0.8596191,1.9199829-1.9200439C7.7433476,8.5874777,6.8837895,7.7278585,5.8233647,7.7278585z"/>
</g>
<g id="tax_research_x26_planning_x0D_">
	<path class="st3" d="M37.2166748,1.112856h0.0732422V0.7124653c0-0.1074219,0.0029297-0.1914063,0.0083008-0.2524414
		c0.0058594-0.0610352,0.0219727-0.1137695,0.0478516-0.157702c0.0258789-0.045423,0.0634766-0.0825324,0.1123047-0.1108527
		c0.0488281-0.0288086,0.1035156-0.0429688,0.1635742-0.0429688c0.0844727,0,0.1611328,0.0317383,0.2294922,0.0952148
		c0.0454102,0.0424805,0.0742188,0.0942383,0.0864258,0.1552734s0.0185547,0.1474609,0.0185547,0.2597656V1.112856h0.2441406
		c0.0942383,0,0.1665039,0.0224609,0.2158203,0.0673828c0.0498047,0.0444336,0.074707,0.1020508,0.074707,0.171875
		c0,0.0893555-0.0356445,0.1523438-0.1064453,0.1879883s-0.171875,0.0537109-0.3037109,0.0537109h-0.1245117v1.2255858
		c0,0.1040039,0.003418,0.1845703,0.0107422,0.2407227s0.0268555,0.1015625,0.0585938,0.1367188
		c0.0317383,0.034668,0.0834961,0.0522461,0.1552734,0.0522461c0.0390625,0,0.0917969-0.0068359,0.1586914-0.0205078
		c0.0668945-0.0141602,0.1186523-0.0209961,0.15625-0.0209961c0.0537109,0,0.1020508,0.0214844,0.1450195,0.0649414
		c0.043457,0.0429688,0.0649414,0.0961914,0.0649414,0.159668c0,0.1074219-0.0585938,0.1894531-0.1757813,0.246582
		s-0.2856445,0.0854492-0.5053711,0.0854492c-0.2084961,0-0.3662109-0.0351563-0.4736328-0.1049805
		s-0.1777344-0.1669922-0.2114258-0.2905273c-0.0332031-0.1235352-0.0498047-0.2890625-0.0498047-0.4956055V1.5938131h-0.0878906
		c-0.0961914,0-0.1694336-0.0229492-0.2197266-0.0683594s-0.0756836-0.1035156-0.0756836-0.1733398
		s0.0263672-0.1274414,0.0791016-0.171875C37.0389404,1.135317,37.1156006,1.112856,37.2166748,1.112856z M40.6346436,3.3882465
		c-0.1611328,0.1254883-0.3168945,0.2192383-0.4677734,0.2822266c-0.1503906,0.0625-0.3193359,0.09375-0.5063477,0.09375
		c-0.1708984,0-0.3212891-0.0336914-0.4506836-0.1010742c-0.1293945-0.0678711-0.2290039-0.1591797-0.2988281-0.2749023
		S38.8060303,3.1475239,38.8060303,3.01227c0-0.1821289,0.0576172-0.3378906,0.1733398-0.4663086
		s0.2744141-0.2148438,0.4760742-0.2587891c0.0424805-0.0097656,0.1474609-0.0317383,0.3149414-0.065918
		s0.3110352-0.0654297,0.4306641-0.09375c0.1196289-0.0288086,0.2495117-0.0634766,0.3896484-0.1040039
		c-0.0083008-0.1757811-0.043457-0.3046874-0.1064453-0.3867186c-0.0625-0.0825195-0.1923828-0.1235352-0.3891602-0.1235352
		c-0.1694336,0-0.296875,0.0234375-0.3823242,0.0708008s-0.1586914,0.1181641-0.2197266,0.2124023
		s-0.1040039,0.1567383-0.1293945,0.1870117c-0.0249023,0.029785-0.0791016,0.0449218-0.1621094,0.0449218
		c-0.074707,0-0.1396484-0.0239258-0.1943359-0.0717772c-0.0541992-0.0483398-0.081543-0.1098633-0.081543-0.1845703
		c0-0.1171875,0.0415039-0.230957,0.1245117-0.3417969s0.2124023-0.2016602,0.3881836-0.2734375
		s0.3945313-0.1074219,0.6567383-0.1074219c0.2929688,0,0.5234375,0.034668,0.690918,0.1040039
		c0.1674805,0.0688477,0.2861328,0.1782227,0.3549805,0.328125c0.0693359,0.1499023,0.1040039,0.3481445,0.1040039,0.595703
		c0,0.15625-0.0004883,0.2890625-0.0014648,0.3979492c-0.0004883,0.1088867-0.0019531,0.2304688-0.003418,0.3637695
		c0,0.1254883,0.0205078,0.2558594,0.0620117,0.3920898c0.0415039,0.1357422,0.0625,0.2231445,0.0625,0.262207
		c0,0.0683594-0.0322266,0.1308594-0.0966797,0.1870117c-0.0639648,0.0556641-0.1367188,0.0839844-0.2182617,0.0839844
		c-0.0683594,0-0.1357422-0.0322266-0.2026367-0.0961914C40.7801514,3.6035786,40.7093506,3.5103168,40.6346436,3.3882465z
		 M40.5906982,2.4238911c-0.0976563,0.0356445-0.2397461,0.0737305-0.4262695,0.1137695
		c-0.1860352,0.0395508-0.3149414,0.0688477-0.3867188,0.0878906c-0.0717773,0.0185547-0.1401367,0.0551758-0.2050781,0.1098633
		c-0.0649414,0.0541992-0.0976563,0.1303711-0.0976563,0.2280273c0,0.1010742,0.0380859,0.1870117,0.1147461,0.2578125
		s0.1767578,0.105957,0.300293,0.105957c0.1318359,0,0.253418-0.0288086,0.3647461-0.0864258
		c0.1118164-0.0581055,0.1933594-0.1323242,0.2456055-0.2236328c0.0600586-0.1010742,0.090332-0.2670898,0.090332-0.4980469
		V2.4238911z M43.3665771,3.4883442L42.8831787,2.777895l-0.4956055,0.7104492
		c-0.0717773,0.0991211-0.1323242,0.1699219-0.1821289,0.2124023c-0.0493164,0.0424805-0.1123047,0.0634766-0.1889648,0.0634766
		c-0.0844727,0-0.1567383-0.0263672-0.2163086-0.0791016c-0.059082-0.0532227-0.0888672-0.1137695-0.0888672-0.1821289
		c0-0.0698242,0.0454102-0.1699219,0.1367188-0.300293l0.6030273-0.8642578l-0.534668-0.7202147
		c-0.0927734-0.1186523-0.1391602-0.222168-0.1391602-0.3100586c0-0.0683594,0.027832-0.1279297,0.0830078-0.1782227
		s0.1279297-0.0756836,0.2172852-0.0756836c0.078125,0,0.1425781,0.0219727,0.1938477,0.065918
		s0.1113281,0.1132813,0.1796875,0.2075195l0.4321289,0.5908203l0.4199219-0.5908203
		c0.0698242-0.0976563,0.1303711-0.1674805,0.1816406-0.2099609s0.1152344-0.0634766,0.1918945-0.0634766
		c0.0878906,0,0.1606445,0.0249023,0.2182617,0.074707c0.0581055,0.0493164,0.0869141,0.109375,0.0869141,0.1791992
		c0,0.050293-0.0117188,0.0991211-0.0356445,0.1455078c-0.0234375,0.0463867-0.0595703,0.1010742-0.1083984,0.1645508
		l-0.534668,0.7202147l0.6030273,0.8642578c0.0942383,0.1352539,0.1416016,0.2368164,0.1416016,0.3051758
		c0,0.0698242-0.0292969,0.1303711-0.0878906,0.1806641s-0.1308594,0.0756836-0.2172852,0.0756836
		c-0.0766602,0-0.1411133-0.0219727-0.1943359-0.065918C43.4954834,3.6543598,43.4349365,3.5845356,43.3665771,3.4883442z
		 M46.4378662,2.8023214v0.5566282c0,0.1352539-0.0317383,0.2363281-0.0952148,0.3041992
		c-0.0634766,0.0673828-0.144043,0.1010742-0.2416992,0.1010742c-0.0961914,0-0.1748047-0.0341797-0.2368164-0.1025391
		s-0.0927734-0.1694336-0.0927734-0.3027344V1.503481c0-0.2993164,0.1083984-0.4492188,0.324707-0.4492188
		c0.1108398,0,0.1904297,0.0351563,0.2392578,0.1049805s0.0756836,0.1733398,0.0805664,0.3100586
		c0.0795898-0.1367188,0.1616211-0.2402344,0.2451172-0.3100586c0.0839844-0.0698242,0.1958008-0.1049805,0.3359375-0.1049805
		s0.2758789,0.0351563,0.4077148,0.1049805s0.1977539,0.1625977,0.1977539,0.2783203
		c0,0.081543-0.0283203,0.1484375-0.0844727,0.2016602c-0.0561523,0.0527344-0.1166992,0.0791016-0.1816406,0.0791016
		c-0.0244141,0-0.0834961-0.0151367-0.1772461-0.0449219c-0.0932617-0.0302734-0.1757813-0.0454102-0.2475586-0.0454102
		c-0.0976563,0-0.1772461,0.0258789-0.2392578,0.0771484s-0.1098633,0.1269531-0.144043,0.2280273
		c-0.0341797,0.1010741-0.0576172,0.2211913-0.0708008,0.3603514S46.4378662,2.6021137,46.4378662,2.8023214z M49.7020264,2.5728168
		h-1.3037109c0.0014648,0.1513672,0.0322266,0.284668,0.0913086,0.4003906
		c0.0595703,0.1157227,0.1386719,0.2026367,0.2368164,0.2612305c0.0986328,0.0585938,0.2075195,0.0878906,0.3261719,0.0878906
		c0.0795898,0,0.1523438-0.0092773,0.2182617-0.027832c0.065918-0.019043,0.1298828-0.0483398,0.1918945-0.0878906
		c0.0620117-0.0400391,0.1186523-0.0830078,0.1708984-0.128418s0.1196289-0.1074219,0.2026367-0.1855469
		c0.0341797-0.0292969,0.0830078-0.0439453,0.1464844-0.0439453c0.0683594,0,0.1235352,0.0185547,0.1660156,0.0561523
		s0.0634766,0.090332,0.0634766,0.1586914c0,0.0600586-0.0234375,0.1308594-0.0708008,0.2114258
		s-0.1186523,0.1577148-0.2138672,0.2319336c-0.0952148,0.0737305-0.2148438,0.1352539-0.3588867,0.184082
		s-0.3095703,0.0732422-0.496582,0.0732422c-0.4282227,0-0.7607422-0.1220703-0.9985352-0.3662109
		s-0.3564453-0.5751953-0.3564453-0.9936523c0-0.1967773,0.0292969-0.3793945,0.0878906-0.5478514
		s0.144043-0.3129883,0.2563477-0.4335938c0.1123047-0.1205926,0.2504883-0.2128906,0.4150391-0.2768555
		c0.1645508-0.0644531,0.3466797-0.0966797,0.546875-0.0966797c0.2602539,0,0.4838867,0.0551758,0.6699219,0.1650391
		c0.1865234,0.1098633,0.3261719,0.2514648,0.4189453,0.4257813s0.1391602,0.3515625,0.1391602,0.5322264
		c0,0.1674805-0.0478516,0.2763672-0.144043,0.3261719C50.0111084,2.5479145,49.8763428,2.5728168,49.7020264,2.5728168z
		 M48.3983154,2.1943989h1.2084961c-0.0161133-0.2280272-0.0776367-0.3984374-0.1845703-0.5112303
		c-0.1064453-0.1132813-0.246582-0.1699219-0.4208984-0.1699219c-0.1660156,0-0.3022461,0.0576172-0.4091797,0.1723633
		C48.4857178,1.800356,48.4212646,1.9697896,48.3983154,2.1943989z M52.9588623,2.8926411
		c0,0.184082-0.0449219,0.3413086-0.1342773,0.4726563c-0.0893555,0.1308594-0.2216797,0.2299805-0.3969727,0.2978516
		c-0.1748047,0.0673828-0.3876953,0.1010742-0.6381836,0.1010742c-0.2392578,0-0.4443359-0.0366211-0.6152344-0.1098633
		s-0.296875-0.1645508-0.378418-0.2744141s-0.1220703-0.2202148-0.1220703-0.3310547
		c0-0.0732422,0.0258789-0.1357422,0.078125-0.1879883s0.1181641-0.078125,0.1977539-0.078125
		c0.0698242,0,0.1235352,0.0170898,0.1611328,0.0512695s0.0732422,0.0820313,0.1074219,0.144043
		c0.0683594,0.1186523,0.1499023,0.2075195,0.2451172,0.2661133s0.2250977,0.0878906,0.3896484,0.0878906
		c0.1333008,0,0.2426758-0.0297728,0.328125-0.0888672c0.0854492-0.0595703,0.128418-0.1274414,0.128418-0.2041016
		c0-0.1171875-0.0444336-0.2026367-0.1333008-0.2563477c-0.0883789-0.0537109-0.234375-0.1049805-0.4379883-0.1538086
		C51.508667,2.5718403,51.3216553,2.51227,51.1776123,2.44977c-0.144043-0.0629883-0.2587891-0.1455078-0.3452148-0.2480469
		s-0.1293945-0.2285155-0.1293945-0.3784178c0-0.1333008,0.0400391-0.2597656,0.1196289-0.378418
		s0.1972656-0.2133789,0.3525391-0.2841797c0.1557617-0.0708008,0.3432617-0.1064453,0.5629883-0.1064453
		c0.1723633,0,0.3276367,0.0180664,0.4648438,0.0537109c0.1376953,0.0356445,0.2524414,0.0839844,0.3442383,0.144043
		c0.0922852,0.0600586,0.1621094,0.1269531,0.2099609,0.2001953c0.0483398,0.0732422,0.0722656,0.1450195,0.0722656,0.2148438
		c0,0.0766602-0.0258789,0.1391602-0.0771484,0.1879883s-0.1240234,0.0732422-0.2182617,0.0732422
		c-0.0683594,0-0.1264648-0.0195313-0.1748047-0.0585938c-0.0478516-0.0390625-0.1025391-0.0976563-0.1645508-0.1757813
		c-0.050293-0.0649414-0.1098633-0.1171875-0.1782227-0.15625S51.8553467,1.479067,51.7381592,1.479067
		c-0.1206055,0-0.2207031,0.0258789-0.300293,0.0771484s-0.1196289,0.1147461-0.1196289,0.1914063
		c0,0.0698242,0.0292969,0.1274414,0.0878906,0.1723633c0.0585938,0.0444336,0.1376953,0.0815428,0.2368164,0.1108397
		s0.2358398,0.0649414,0.4101563,0.1074219c0.206543,0.050293,0.3754883,0.1108398,0.5063477,0.1806641
		c0.1313477,0.0698242,0.2304688,0.152832,0.2978516,0.2480469C52.9251709,2.6621723,52.9588623,2.7705708,52.9588623,2.8926411z
		 M55.3831787,2.5728168h-1.3037109c0.0014648,0.1513672,0.0322266,0.284668,0.0913086,0.4003906
		c0.0595703,0.1157227,0.1386719,0.2026367,0.2368164,0.2612305c0.0986328,0.0585938,0.2075195,0.0878906,0.3261719,0.0878906
		c0.0795898,0,0.1523438-0.0092773,0.2182617-0.027832c0.065918-0.019043,0.1298828-0.0483398,0.1918945-0.0878906
		c0.0620117-0.0400391,0.1186523-0.0830078,0.1708984-0.128418s0.1196289-0.1074219,0.2026367-0.1855469
		c0.0341797-0.0292969,0.0830078-0.0439453,0.1464844-0.0439453c0.0683594,0,0.1235352,0.0185547,0.1660156,0.0561523
		s0.0634766,0.090332,0.0634766,0.1586914c0,0.0600586-0.0234375,0.1308594-0.0708008,0.2114258
		s-0.1186523,0.1577148-0.2138672,0.2319336c-0.0952148,0.0737305-0.2148438,0.1352539-0.3588867,0.184082
		s-0.3095703,0.0732422-0.496582,0.0732422c-0.4282227,0-0.7607422-0.1220703-0.9985352-0.3662109
		s-0.3564453-0.5751953-0.3564453-0.9936523c0-0.1967773,0.0292969-0.3793945,0.0878906-0.5478514
		s0.144043-0.3129883,0.2563477-0.4335938c0.1123047-0.1205926,0.2504883-0.2128906,0.4150391-0.2768555
		c0.1645508-0.0644531,0.3466797-0.0966797,0.546875-0.0966797c0.2602539,0,0.4838867,0.0551758,0.6699219,0.1650391
		c0.1865234,0.1098633,0.3261719,0.2514648,0.4189453,0.4257813s0.1391602,0.3515625,0.1391602,0.5322264
		c0,0.1674805-0.0478516,0.2763672-0.144043,0.3261719C55.6922607,2.5479145,55.5574951,2.5728168,55.3831787,2.5728168z
		 M54.0794678,2.1943989h1.2084961c-0.0161133-0.2280272-0.0776367-0.3984374-0.1845703-0.5112303
		c-0.1064453-0.1132813-0.246582-0.1699219-0.4208984-0.1699219c-0.1660156,0-0.3022461,0.0576172-0.4091797,0.1723633
		C54.1668701,1.800356,54.102417,1.9697896,54.0794678,2.1943989z M58.1776123,3.3882465
		c-0.1601563,0.1254883-0.3164063,0.2192383-0.4667969,0.2822266c-0.1503906,0.0625-0.3183594,0.09375-0.5058594,0.09375
		c-0.171875,0-0.3222656-0.0336914-0.4511719-0.1010742c-0.1289063-0.0678711-0.2285156-0.1591797-0.2988281-0.2749023
		S56.3494873,3.1475239,56.3494873,3.01227c0-0.1821289,0.0585938-0.3378906,0.1738281-0.4663086
		s0.2744141-0.2148438,0.4765625-0.2587891c0.0419922-0.0097656,0.1464844-0.0317383,0.3144531-0.065918
		s0.3105469-0.0654297,0.4316406-0.09375c0.1191406-0.0288086,0.2480469-0.0634766,0.3886719-0.1040039
		c-0.0078125-0.1757811-0.0429688-0.3046874-0.1054688-0.3867186c-0.0625-0.0825195-0.1933594-0.1235352-0.390625-0.1235352
		c-0.1679688,0-0.296875,0.0234375-0.3808594,0.0708008c-0.0859375,0.0473633-0.1601563,0.1181641-0.2207031,0.2124023
		s-0.1035156,0.1567383-0.1289063,0.1870117c-0.0253906,0.029785-0.0800781,0.0449218-0.1621094,0.0449218
		c-0.0751953,0-0.140625-0.0239258-0.1953125-0.0717772c-0.0537109-0.0483398-0.0810547-0.1098633-0.0810547-0.1845703
		c0-0.1171875,0.0419922-0.230957,0.1240234-0.3417969c0.0839844-0.1108398,0.2128906-0.2016602,0.3886719-0.2734375
		s0.3945313-0.1074219,0.65625-0.1074219c0.2929688,0,0.5234375,0.034668,0.6914063,0.1040039
		c0.1679688,0.0688477,0.2851563,0.1782227,0.3554688,0.328125c0.0683594,0.1499023,0.1035156,0.3481445,0.1035156,0.595703
		c0,0.15625,0,0.2890625-0.0019531,0.3979492c0,0.1088867-0.0019608,0.2304688-0.0039063,0.3637695
		c0,0.1254883,0.0214844,0.2558594,0.0625,0.3920898c0.0429688,0.1357422,0.0625,0.2231445,0.0625,0.262207
		c0,0.0683594-0.03125,0.1308594-0.0957031,0.1870117c-0.0644531,0.0556641-0.1367188,0.0839844-0.21875,0.0839844
		c-0.0683594,0-0.1367188-0.0322266-0.203125-0.0961914C58.3240967,3.6035786,58.2537842,3.5103168,58.1776123,3.3882465z
		 M58.1346436,2.4238911c-0.0976563,0.0356445-0.2402344,0.0737305-0.4257813,0.1137695
		c-0.1875,0.0395508-0.3164063,0.0688477-0.3867188,0.0878906c-0.0722656,0.0185547-0.140625,0.0551758-0.2050781,0.1098633
		c-0.0654297,0.0541992-0.0976563,0.1303711-0.0976563,0.2280273c0,0.1010742,0.0371094,0.1870117,0.1142578,0.2578125
		s0.1767578,0.105957,0.2998047,0.105957c0.1328125,0,0.2539063-0.0288086,0.3652344-0.0864258
		c0.1113205-0.0581055,0.1933594-0.1323242,0.2460938-0.2236328c0.0605469-0.1010742,0.0898438-0.2670898,0.0898438-0.4980469
		V2.4238911z M60.1268311,2.8023214v0.5566282c0,0.1352539-0.0322266,0.2363281-0.0957031,0.3041992
		c-0.0634766,0.0673828-0.1435547,0.1010742-0.2412109,0.1010742c-0.0957031,0-0.1748047-0.0341797-0.2373047-0.1025391
		c-0.0615234-0.0683594-0.0927734-0.1694336-0.0927734-0.3027344V1.503481c0-0.2993164,0.1083984-0.4492188,0.3251877-0.4492188
		c0.1103592,0,0.1904373,0.0351563,0.2392654,0.1049805s0.0751953,0.1733398,0.0800781,0.3100586
		c0.0800781-0.1367188,0.1621094-0.2402344,0.2460938-0.3100586s0.1953125-0.1049805,0.3349609-0.1049805
		c0.140625,0,0.2763672,0.0351563,0.4082031,0.1049805s0.1972656,0.1625977,0.1972656,0.2783203
		c0,0.081543-0.0273438,0.1484375-0.0839844,0.2016602c-0.0556641,0.0527344-0.1162109,0.0791016-0.1816406,0.0791016
		c-0.0244141,0-0.0830078-0.0151367-0.1767578-0.0449219c-0.09375-0.0302734-0.1767578-0.0454102-0.2480469-0.0454102
		c-0.0976563,0-0.1777344,0.0258789-0.2392578,0.0771484s-0.1103516,0.1269531-0.1445313,0.2280273
		c-0.0341797,0.1010741-0.0576172,0.2211913-0.0703125,0.3603514S60.1268311,2.6021137,60.1268311,2.8023214z M63.914917,2.9390278
		c0,0.0830078-0.0244141,0.171875-0.0742188,0.2661133s-0.1259766,0.1845703-0.2275391,0.2700195
		s-0.2294922,0.1538086-0.3847656,0.2060547c-0.1542969,0.0522461-0.328125,0.078125-0.5224609,0.078125
		c-0.4111328,0-0.7324219-0.1201172-0.9638672-0.3598633c-0.2314453-0.2402344-0.3466797-0.5620117-0.3466797-0.9658203
		c0-0.2734375,0.0527344-0.5151366,0.1582031-0.7250975c0.1064377-0.2099609,0.2587891-0.3720703,0.4589844-0.4868164
		s0.4394531-0.1723633,0.7177734-0.1723633c0.1728516,0,0.3310547,0.0253906,0.4755859,0.0756836
		c0.1435547,0.050293,0.265625,0.1157227,0.3662109,0.1953125c0.0996094,0.0795898,0.1767578,0.1650391,0.2294922,0.2553711
		s0.0791016,0.1743164,0.0791016,0.2524414c0,0.0795898-0.0292969,0.1474609-0.0888672,0.2026366
		c-0.0595703,0.0551758-0.1318436,0.0830078-0.2167969,0.0830078c-0.0546875,0-0.1005859-0.0141602-0.1376953-0.0424805
		c-0.0361328-0.0288086-0.0771484-0.0747069-0.1230469-0.1381835c-0.0810547-0.1235352-0.1660156-0.2163086-0.2548828-0.2783203
		s-0.2021484-0.0927734-0.3388672-0.0927734c-0.1962891,0-0.3554688,0.0771484-0.4755859,0.230957
		s-0.1806641,0.3637694-0.1806641,0.6308593c0,0.1254883,0.015625,0.2407227,0.0458984,0.3457031
		c0.03125,0.1049805,0.0761719,0.1943359,0.1347656,0.2685547c0.0585938,0.0737305,0.1289063,0.1298828,0.2119141,0.168457
		c0.0830078,0.0380859,0.1748047,0.0571289,0.2734375,0.0571289c0.1337891,0,0.2480469-0.0307617,0.34375-0.0927734
		c0.0947266-0.0620117,0.1787109-0.15625,0.2519531-0.2832031c0.0410156-0.074707,0.0849609-0.1333008,0.1318359-0.1757813
		c0.0478516-0.0424805,0.1054688-0.0634766,0.1738281-0.0634766c0.0810547,0,0.1484375,0.0307617,0.2021484,0.0927734
		S63.914917,2.8692036,63.914917,2.9390278z M65.0233154,0.4683247v0.9887696
		c0.0849609-0.0976563,0.1669922-0.1748047,0.2480469-0.2319336c0.0800781-0.0571289,0.1689453-0.0996094,0.2666016-0.1279297
		c0.0976563-0.0288086,0.203125-0.0429688,0.3154297-0.0429688c0.1689453,0,0.3193359,0.0356445,0.4501953,0.1074219
		s0.234375,0.1757813,0.3085938,0.3125c0.0478439,0.0795898,0.0791016,0.1689453,0.0957031,0.2675781
		c0.0166016,0.0981445,0.0244141,0.2119141,0.0244141,0.3403319v1.2768555c0,0.1333008-0.0302734,0.234375-0.0917969,0.3027344
		c-0.0605469,0.0683594-0.1416016,0.1025391-0.2431641,0.1025391c-0.2197266,0-0.3291016-0.1352539-0.3291016-0.4052734V2.2334614
		c0-0.2133789-0.0322266-0.376953-0.0957031-0.4916991S65.7889404,1.569399,65.6112061,1.569399
		c-0.1181641,0-0.2255859,0.0336914-0.3203125,0.1015625c-0.0957031,0.0673828-0.1669922,0.159668-0.2138672,0.2768555
		c-0.0361328,0.099121-0.0537109,0.2758788-0.0537109,0.529785v0.8813477c0,0.1318359-0.0292969,0.2324219-0.0888672,0.3017578
		c-0.0595703,0.0688477-0.1425781,0.1035156-0.2480469,0.1035156c-0.2197266,0-0.3300781-0.1352539-0.3300781-0.4052734v-2.890625
		c0-0.1352539,0.0292969-0.2363281,0.0869141-0.3037109c0.0576172-0.0678711,0.1386719-0.1015625,0.2431641-0.1015625
		c0.1054688,0,0.1884766,0.0341797,0.2480469,0.1025391S65.0233154,0.3350239,65.0233154,0.4683247z M67.8201904,0.8833638
		c0-0.1513672,0.0400391-0.2890625,0.1191406-0.4135742s0.1943359-0.2236328,0.3476563-0.296875
		s0.3330078-0.1098633,0.5390625-0.1098633c0.2050781,0,0.3828125,0.0380859,0.5322266,0.1147461
		c0.1503906,0.0766602,0.2617188,0.1767578,0.3359375,0.300293s0.1113281,0.2524414,0.1113281,0.3857422
		c0,0.182129-0.0605469,0.3408204-0.1806641,0.4760743s-0.2978516,0.2724609-0.5322266,0.4125977
		c0.0810547,0.0961914,0.1572266,0.1865234,0.2265625,0.270996c0.0703125,0.0844727,0.1376953,0.1635742,0.203125,0.2368164
		s0.1240234,0.1357422,0.1777344,0.1879883c0.0244141-0.0454102,0.0625-0.1308594,0.1142578-0.2563477
		c0.0507813-0.1254883,0.0986328-0.2158202,0.1435547-0.270996s0.1083984-0.0830078,0.1894531-0.0830078
		c0.0761719,0,0.1435547,0.0273438,0.2021484,0.0820313c0.0585938,0.0541992,0.0878906,0.1206053,0.0878906,0.1987303
		c0,0.0717773-0.0244141,0.1728516-0.0751953,0.3041992c-0.0507813,0.1308594-0.1240234,0.2758789-0.2197266,0.4355469
		c0.0605469,0.0522461,0.15625,0.1308594,0.2871094,0.2368164s0.2109375,0.1777344,0.2412109,0.2163086
		c0.0302734,0.0380859,0.0449219,0.0888672,0.0449219,0.1523438c0,0.0844727-0.0302734,0.1557617-0.0908203,0.2138672
		c-0.0615234,0.0576172-0.1289063,0.0864258-0.2041016,0.0864258c-0.0761719,0-0.1503906-0.0244141-0.2226563-0.0732422
		c-0.0712891-0.0488281-0.2236328-0.168457-0.4560547-0.3588867c-0.1054688,0.0991211-0.2148438,0.1806641-0.328125,0.2441406
		s-0.234375,0.1108398-0.3642578,0.1416016c-0.1289063,0.0307617-0.2734375,0.0463867-0.4335938,0.0463867
		c-0.203125,0-0.3857422-0.0297852-0.5478516-0.0888672c-0.1621094-0.0595703-0.296875-0.1396484-0.4042969-0.2407227
		S67.477417,3.2217426,67.4246826,3.099184c-0.0517578-0.1230469-0.078125-0.2480469-0.078125-0.375
		c0-0.1220703,0.0195313-0.2338867,0.0585938-0.3354492c0.0390625-0.1020508,0.0947266-0.1938477,0.1650391-0.2758789
		c0.0712891-0.0825195,0.1582031-0.1606444,0.2617188-0.2343749c0.1035156-0.0742188,0.2226563-0.1464844,0.359375-0.2163086
		c-0.1220703-0.152832-0.2138672-0.2890625-0.2763672-0.4086914S67.8201904,1.010317,67.8201904,0.8833638z M68.5115967,2.0527973
		c-0.1660156,0.0961914-0.2900391,0.1918945-0.3720703,0.2880859s-0.1240234,0.2099609-0.1240234,0.3417969
		c0,0.074707,0.015625,0.1464844,0.0458984,0.2148438s0.0742188,0.1318359,0.1318359,0.1904297s0.125,0.1035156,0.2011719,0.1342773
		s0.1572266,0.0463867,0.2412109,0.0463867c0.0830078,0,0.1640625-0.0131836,0.2421875-0.0390625
		s0.1523438-0.0629883,0.2216797-0.1108398c0.0703125-0.0483398,0.1425781-0.1079102,0.2177734-0.1796875
		c-0.1445313-0.1333008-0.2753906-0.265625-0.390625-0.3964844C68.8114014,2.4111958,68.6727295,2.2481098,68.5115967,2.0527973z
		 M68.7606201,1.3838521c0.1660156-0.105957,0.2861328-0.1948242,0.3603516-0.2670898
		c0.0742188-0.0727539,0.1103516-0.1601563,0.1103516-0.2626954c0-0.1010742-0.0361328-0.1855469-0.1103516-0.2539063
		s-0.1679688-0.1025391-0.2802734-0.1025391s-0.2060547,0.0351563-0.28125,0.1049805
		c-0.0761719,0.0698242-0.1142578,0.1523438-0.1142578,0.246582c0,0.0488281,0.0146484,0.1015625,0.0429688,0.1577149
		c0.0283203,0.0561523,0.0644531,0.1118164,0.1064453,0.1669922S68.6922607,1.2993795,68.7606201,1.3838521z M71.8045654,1.4277974
		v0.0805664c0.1259766-0.1547852,0.2558594-0.2680664,0.390625-0.340332
		c0.1357422-0.0727539,0.2880859-0.1088867,0.4589844-0.1088867c0.2050781,0,0.3945313,0.0527344,0.5664063,0.1586914
		c0.1728516,0.105957,0.3095703,0.2602539,0.4091797,0.4638672c0.1005859,0.2036133,0.1503906,0.4443358,0.1503906,0.7226561
		c0,0.2050781-0.0292969,0.3935547-0.0869141,0.5654297c-0.0576172,0.1713867-0.1367188,0.3154297-0.2382813,0.4321289
		c-0.1005859,0.1162109-0.2197266,0.2055664-0.3574219,0.2685547c-0.1376953,0.0625-0.2851563,0.09375-0.4433594,0.09375
		c-0.1904297,0-0.3496094-0.0380859-0.4794922-0.1147461c-0.1289063-0.0766602-0.2529297-0.1889648-0.3701172-0.3369141v1.0009766
		c0,0.2929688-0.1064453,0.4394531-0.3193359,0.4394531c-0.125,0-0.2080078-0.0380859-0.2490234-0.1137695
		s-0.0615234-0.1855469-0.0615234-0.3305664V1.4326802c0-0.1269531,0.0283203-0.2216797,0.0830078-0.2841797
		c0.0556641-0.0629883,0.1318359-0.0942383,0.2275391-0.0942383c0.0947266,0,0.1708984,0.0322266,0.2304688,0.0966797
		C71.7752686,1.2149068,71.8045654,1.307192,71.8045654,1.4277974z M73.1112061,2.3970356
		c0-0.1757813-0.0273438-0.3266602-0.0810547-0.4526366c-0.0537109-0.1264648-0.1279297-0.2231445-0.2226563-0.2905273
		C72.711792,1.5860006,72.6063232,1.552322,72.4910889,1.552322c-0.1835938,0-0.3388672,0.0722528-0.4648438,0.2172723
		s-0.1894531,0.35791-0.1894531,0.6396483c0,0.2651367,0.0625,0.4716797,0.1875,0.6191406
		c0.1259766,0.1469727,0.28125,0.2207031,0.4667969,0.2207031c0.1103516,0,0.2128906-0.0322266,0.3076172-0.0961914
		c0.0947266-0.0644531,0.1699219-0.1611328,0.2265625-0.2895508C73.0828857,2.7349262,73.1112061,2.5791645,73.1112061,2.3970356z
		 M74.3143311,3.3589497v-2.890625c0-0.1333008,0.0302734-0.234375,0.0898438-0.3027344s0.1396484-0.1025391,0.2402344-0.1025391
		s0.1826172,0.0336914,0.2441406,0.1015625c0.0615234,0.0673828,0.0927734,0.168457,0.0927734,0.3037109v2.890625
		c0,0.1352539-0.03125,0.2363281-0.09375,0.3041992c-0.0625,0.0673828-0.1435547,0.1010742-0.2431641,0.1010742
		c-0.0976563,0-0.1767578-0.0351563-0.2382813-0.1049805C74.3455811,3.5894184,74.3143311,3.4893208,74.3143311,3.3589497z
		 M77.3533936,3.3882465c-0.1611328,0.1254883-0.3164063,0.2192383-0.4667969,0.2822266
		c-0.1503906,0.0625-0.3193359,0.09375-0.5068359,0.09375c-0.1708984,0-0.3212891-0.0336914-0.4501953-0.1010742
		c-0.1298828-0.0678711-0.2294922-0.1591797-0.2998047-0.2749023c-0.0693359-0.1157227-0.1044922-0.2407227-0.1044922-0.3759766
		c0-0.1821289,0.0576172-0.3378906,0.1728516-0.4663086c0.1162109-0.128418,0.2744141-0.2148438,0.4765625-0.2587891
		c0.0419922-0.0097656,0.1474609-0.0317383,0.3144531-0.065918c0.1679688-0.0341797,0.3115234-0.0654297,0.4316406-0.09375
		c0.1191406-0.0288086,0.2490234-0.0634766,0.3886719-0.1040039c-0.0078125-0.1757811-0.0429688-0.3046874-0.1054688-0.3867186
		c-0.0625-0.0825195-0.1923828-0.1235352-0.3896484-0.1235352c-0.1689453,0-0.296875,0.0234375-0.3818359,0.0708008
		c-0.0859375,0.0473633-0.1591797,0.1181641-0.2197266,0.2124023c-0.0615234,0.0942383-0.1044922,0.1567383-0.1298828,0.1870117
		c-0.0253906,0.029785-0.0791016,0.0449218-0.1621094,0.0449218c-0.0751953,0-0.1396484-0.0239258-0.1943359-0.0717772
		c-0.0546875-0.0483398-0.0820313-0.1098633-0.0820313-0.1845703c0-0.1171875,0.0419922-0.230957,0.125-0.3417969
		s0.2119141-0.2016602,0.3876953-0.2734375s0.3955078-0.1074219,0.6572266-0.1074219
		c0.2929688,0,0.5234375,0.034668,0.6904297,0.1040039c0.1679688,0.0688477,0.2861328,0.1782227,0.3554688,0.328125
		s0.1035156,0.3481445,0.1035156,0.595703c0,0.15625,0,0.2890625-0.0009766,0.3979492s-0.0019531,0.2304688-0.0039063,0.3637695
		c0,0.1254883,0.0214844,0.2558594,0.0625,0.3920898c0.0419922,0.1357422,0.0625,0.2231445,0.0625,0.262207
		c0,0.0683594-0.0322266,0.1308594-0.0966797,0.1870117c-0.0644531,0.0556641-0.1367188,0.0839844-0.21875,0.0839844
		c-0.0683594,0-0.1357422-0.0322266-0.2021484-0.0961914C77.4998779,3.6035786,77.4285889,3.5103168,77.3533936,3.3882465z
		 M77.3094482,2.4238911c-0.0976563,0.0356445-0.2392578,0.0737305-0.4257813,0.1137695
		c-0.1865234,0.0395508-0.3154297,0.0688477-0.3867188,0.0878906c-0.0712891,0.0185547-0.1396484,0.0551758-0.2050781,0.1098633
		c-0.0654297,0.0541992-0.0976563,0.1303711-0.0976563,0.2280273c0,0.1010742,0.0380859,0.1870117,0.1142578,0.2578125
		c0.0771484,0.0708008,0.1767578,0.105957,0.3007813,0.105957c0.1318359,0,0.2539063-0.0288086,0.3652344-0.0864258
		c0.1113281-0.0581055,0.1933594-0.1323242,0.2451172-0.2236328c0.0605469-0.1010742,0.0898438-0.2670898,0.0898438-0.4980469
		V2.4238911z M79.2449951,1.4229146V1.503481c0.1171875-0.1547852,0.2460938-0.2680664,0.3847656-0.340332
		c0.1396484-0.0727539,0.2988281-0.1088867,0.4794922-0.1088867c0.1757736,0,0.3330078,0.0380859,0.4716797,0.1147461
		s0.2412109,0.1845703,0.3095703,0.324707c0.0439453,0.081543,0.0732422,0.1694336,0.0859375,0.2636719
		s0.0195313,0.2148438,0.0195313,0.361328v1.2402344c0,0.1333008-0.0302734,0.234375-0.0917969,0.3027344
		c-0.0605469,0.0683594-0.140625,0.1025391-0.2382813,0.1025391c-0.0986328,0-0.1796875-0.0351563-0.2412109-0.1049805
		s-0.0927734-0.1699219-0.0927734-0.300293V2.2481098c0-0.2197266-0.0302734-0.3876952-0.0917969-0.5039061
		c-0.0605469-0.1166992-0.1826172-0.1748047-0.3652344-0.1748047c-0.1181641,0-0.2265625,0.0356445-0.3242188,0.1064453
		s-0.1689453,0.1679688-0.2148438,0.2915039c-0.0322266,0.099121-0.0488281,0.2846678-0.0488281,0.5566405v0.8349609
		c0,0.1352539-0.03125,0.2363281-0.09375,0.3041992c-0.0625,0.0673828-0.1435547,0.1010742-0.2431641,0.1010742
		c-0.0957031,0-0.1748047-0.0351563-0.2373047-0.1049805c-0.0615234-0.0698242-0.0927734-0.1699219-0.0927734-0.300293V1.4326802
		c0-0.1269531,0.0283203-0.2216797,0.0830078-0.2841797c0.0556641-0.0629883,0.1318359-0.0942383,0.2275391-0.0942383
		c0.0585938,0,0.1113281,0.0136719,0.1582031,0.0415039c0.0478516,0.027832,0.0859375,0.0693359,0.1142578,0.1245117
		S79.2449951,1.3433248,79.2449951,1.4229146z M82.2645264,1.4229146V1.503481
		c0.1171875-0.1547852,0.2460938-0.2680664,0.3847656-0.340332c0.1396484-0.0727539,0.2988281-0.1088867,0.4794922-0.1088867
		c0.1757813,0,0.3330078,0.0380859,0.4716797,0.1147461s0.2412109,0.1845703,0.3095627,0.324707
		c0.0439529,0.081543,0.0732498,0.1694336,0.0859451,0.2636719s0.0195313,0.2148438,0.0195313,0.361328v1.2402344
		c0,0.1333008-0.0302734,0.234375-0.0917969,0.3027344c-0.0605469,0.0683594-0.140625,0.1025391-0.2382813,0.1025391
		c-0.0986328,0-0.1796875-0.0351563-0.2412109-0.1049805s-0.0927734-0.1699219-0.0927734-0.300293V2.2481098
		c0-0.2197266-0.0302734-0.3876952-0.0917969-0.5039061c-0.0605469-0.1166992-0.1826172-0.1748047-0.3652344-0.1748047
		c-0.1181641,0-0.2265625,0.0356445-0.3242188,0.1064453s-0.1689453,0.1679688-0.2148438,0.2915039
		c-0.0322266,0.099121-0.0488281,0.2846678-0.0488281,0.5566405v0.8349609c0,0.1352539-0.03125,0.2363281-0.09375,0.3041992
		c-0.0625,0.0673828-0.1435547,0.1010742-0.2431641,0.1010742c-0.0957031,0-0.1748047-0.0351563-0.2373047-0.1049805
		c-0.0615234-0.0698242-0.0927734-0.1699219-0.0927734-0.300293V1.4326802c0-0.1269531,0.0283203-0.2216797,0.0830078-0.2841797
		c0.0556641-0.0629883,0.1318359-0.0942383,0.2275391-0.0942383c0.0585938,0,0.1113281,0.0136719,0.1582031,0.0415039
		c0.0478516,0.027832,0.0859375,0.0693359,0.1142578,0.1245117S82.2645264,1.3433248,82.2645264,1.4229146z M85.0155029,0.7442036
		c-0.0927734,0-0.171875-0.0283203-0.2373047-0.0854492c-0.0664063-0.0571289-0.0996094-0.1376953-0.0996094-0.2416992
		c0-0.0942383,0.0341797-0.171875,0.1015625-0.2329102s0.1464844-0.0917969,0.2353516-0.0917969
		c0.0869141,0,0.1630859,0.027832,0.2294922,0.0830078c0.0673828,0.0551758,0.1005859,0.1357422,0.1005859,0.2416992
		c0,0.1025391-0.0322266,0.1826172-0.0976563,0.2407227C85.1824951,0.715395,85.1053467,0.7442036,85.0155029,0.7442036z
		 M85.3455811,1.4326802v1.9262694c0,0.1333008-0.0322266,0.234375-0.0957031,0.3027344s-0.1435547,0.1025391-0.2412109,0.1025391
		s-0.1767578-0.0351563-0.2382813-0.1049805c-0.0605469-0.0698242-0.0917969-0.1699219-0.0917969-0.300293V1.4522115
		c0-0.1318359,0.03125-0.230957,0.0917969-0.2978516c0.0615234-0.0668945,0.140625-0.1000977,0.2382813-0.1000977
		s0.1777344,0.0332031,0.2412109,0.1000977S85.3455811,1.3140279,85.3455811,1.4326802z M86.6385498,1.4229146V1.503481
		c0.1171875-0.1547852,0.2460938-0.2680664,0.3847656-0.340332c0.1396484-0.0727539,0.2988281-0.1088867,0.4794922-0.1088867
		c0.1757813,0,0.3330078,0.0380859,0.4716797,0.1147461s0.2412109,0.1845703,0.3095703,0.324707
		c0.0439453,0.081543,0.0732422,0.1694336,0.0859375,0.2636719s0.0195313,0.2148438,0.0195313,0.361328v1.2402344
		c0,0.1333008-0.0302734,0.234375-0.0917969,0.3027344c-0.0605469,0.0683594-0.140625,0.1025391-0.2382813,0.1025391
		c-0.0986328,0-0.1796875-0.0351563-0.2412109-0.1049805s-0.0927734-0.1699219-0.0927734-0.300293V2.2481098
		c0-0.2197266-0.0302734-0.3876952-0.0917969-0.5039061c-0.0605469-0.1166992-0.1826172-0.1748047-0.3652344-0.1748047
		c-0.1181641,0-0.2265625,0.0356445-0.3242188,0.1064453s-0.1689453,0.1679688-0.2148438,0.2915039
		c-0.0322266,0.099121-0.0488281,0.2846678-0.0488281,0.5566405v0.8349609c0,0.1352539-0.03125,0.2363281-0.09375,0.3041992
		c-0.0625,0.0673828-0.1435547,0.1010742-0.2431641,0.1010742c-0.0957031,0-0.1748047-0.0351563-0.2373047-0.1049805
		c-0.0615234-0.0698242-0.0927734-0.1699219-0.0927734-0.300293V1.4326802c0-0.1269531,0.0283203-0.2216797,0.0830078-0.2841797
		c0.0556641-0.0629883,0.1318359-0.0942383,0.2275391-0.0942383c0.0585938,0,0.1113281,0.0136719,0.1582031,0.0415039
		c0.0478516,0.027832,0.0859375,0.0693359,0.1142578,0.1245117S86.6385498,1.3433248,86.6385498,1.4229146z M91.5037842,1.5425435
		v1.936035c0,0.2211914-0.0234375,0.4116211-0.0703125,0.5712891s-0.1230469,0.2915039-0.2275391,0.3955078
		c-0.1035156,0.1040039-0.2402344,0.1816406-0.4082031,0.231946c-0.1689453,0.0502806-0.3779297,0.0756712-0.6289063,0.0756712
		c-0.2294922,0-0.4345703-0.0322266-0.6152344-0.0966797c-0.1806641-0.0639648-0.3203125-0.1469727-0.4179688-0.2490234
		c-0.0976563-0.1015625-0.1464844-0.2060547-0.1464844-0.3134766c0-0.081543,0.0283203-0.1479492,0.0830078-0.1992188
		c0.0556641-0.0512695,0.1220703-0.0766602,0.2001953-0.0766602c0.0976563,0,0.1835938,0.0429688,0.2568359,0.1293945
		c0.0361328,0.0439453,0.0732422,0.0883789,0.1113281,0.1328125c0.0380859,0.0449219,0.0800781,0.0830078,0.1269531,0.1147461
		c0.0458984,0.0317383,0.1015625,0.0556641,0.1669922,0.0708008c0.0654297,0.015625,0.1396484,0.0234375,0.2246094,0.0234375
		c0.1728516,0,0.3066406-0.0239258,0.4013672-0.0722656c0.0957031-0.0478516,0.1621094-0.1147461,0.2001953-0.2011719
		s0.0605469-0.1787109,0.0673828-0.2773438c0.0068359-0.0981445,0.0117188-0.2563477,0.0146484-0.4746094
		c-0.1025391,0.1430664-0.2207031,0.2524414-0.3554688,0.3271484c-0.1337891,0.074707-0.2939453,0.1123047-0.4794922,0.1123047
		c-0.2226639,0-0.4179688-0.0571289-0.5849609-0.1708984s-0.2949219-0.2734375-0.3847656-0.4785156
		c-0.0888672-0.2050781-0.1337891-0.4418945-0.1337891-0.7104492c0-0.2001953,0.0273438-0.3808593,0.0820313-0.5419921
		s0.1318359-0.296875,0.2324219-0.4077148c0.1015625-0.1108398,0.2177734-0.1938477,0.3496094-0.25
		s0.2763672-0.0844727,0.4345703-0.0844727c0.1884766,0,0.3525391,0.0361328,0.4902344,0.1088867
		c0.1386719,0.0722656,0.2675781,0.1855469,0.3857422,0.340332v-0.090332c0-0.1157098,0.0292969-0.2050781,0.0859375-0.2685547
		s0.1298828-0.0952148,0.2197266-0.0952148c0.1289063,0,0.2138672,0.0419922,0.2558594,0.1259766
		C91.4832764,1.2637349,91.5037842,1.3848287,91.5037842,1.5425435z M89.5731201,2.38727
		c0,0.2700195,0.0585938,0.4746094,0.1767578,0.612793s0.2705078,0.2075195,0.4580078,0.2075195
		c0.1103516,0,0.2148438-0.0297852,0.3134766-0.0888672c0.0986328-0.0595703,0.1787109-0.1489258,0.2402344-0.2685547
		c0.0625-0.1196289,0.0927734-0.2651367,0.0927734-0.4360352c0-0.2719727-0.0595703-0.4833983-0.1787109-0.6347655
		C90.555542,1.6279927,90.3983154,1.552322,90.2030029,1.552322c-0.1904297,0-0.3427734,0.0722528-0.4580078,0.2172723
		C89.6307373,1.9146138,89.5731201,2.1201801,89.5731201,2.38727z"/>
</g>
</svg>
