<?xml version="1.0" encoding="utf-8"?>
<!-- Generator: Adobe Illustrator 19.2.1, SVG Export Plug-In . SVG Version: 6.00 Build 0)  -->
<svg version="1.1" id="Слой_1" xmlns="http://www.w3.org/2000/svg" xmlns:xlink="http://www.w3.org/1999/xlink" x="0px" y="0px"
	 viewBox="0 0 20 19.9696045" style="enable-background:new 0 0 20 19.9696045;" xml:space="preserve">
<style type="text/css">
	.st0{fill:#2D2E2C;}
</style>
<path class="st0" d="M20,18.2978725c-0.577507,0.5572433-1.1550159,1.1144886-1.732523,1.6717319
	c-2.502532-2.5531902-5.005065-5.1063824-7.5075989-7.6595745c-0.4193697,0.2987022-1.0744314,0.6942101-1.9503288,0.9649992
	c-0.0000925,0.0000296-0.9912424,0.3053284-2.0193706,0.3053284C3.040066,13.5803576,0,10.5402918,0,6.7901788
	S3.040066,0,6.7901788,0s6.7901788,3.040066,6.7901788,6.7901788c0,1.0195599-0.3051815,2.0188985-0.3052092,2.018991
	c-0.2624931,0.8664904-0.642169,1.5223913-0.9347229,1.9507084C14.8936167,13.272543,17.4468079,15.7852068,20,18.2978725z
	 M6.7901788,1.9086252c-2.6960077,0-4.8815536,2.1855459-4.8815536,4.8815536s2.1855459,4.8815541,4.8815536,4.8815541
	s4.8815541-2.1855469,4.8815541-4.8815541S9.486186,1.9086252,6.7901788,1.9086252z"/>
</svg>
